P3
# Created by IrfanView
128 34
255
13 13 13 0 0 0 0 0 0 0 0 0 0 0 0 
2 2 2 0 0 0 0 0 0 0 0 0 0 0 0 
0 0 0 0 0 0 0 0 0 0 0 0 0 0 0 
0 0 0 0 0 0 0 0 0 0 0 0 0 0 0 
0 0 0 0 0 0 0 0 0 0 0 0 0 1 0 
0 0 0 2 2 4 0 0 5 1 0 8 3 2 10 
1 0 6 0 0 4 0 1 0 4 5 0 0 1 0 
0 2 0 0 3 0 0 3 0 0 3 1 0 1 4 
0 1 0 6 8 3 0 3 0 0 3 0 2 4 0 
0 2 0 0 1 3 2 3 7 1 5 0 0 1 0 
0 0 2 0 0 2 0 1 0 7 10 1 0 2 0 
0 1 0 2 1 7 0 0 2 1 2 0 0 1 0 
2 3 0 0 1 0 4 5 0 0 0 0 1 2 0 
0 1 0 6 6 4 2 2 4 0 0 5 1 0 6 
1 0 6 0 0 4 3 5 0 0 2 0 2 5 0 
0 2 0 1 3 0 0 0 2 8 9 13 0 0 5 
0 0 7 0 0 2 2 4 1 0 1 0 6 7 9 
0 0 4 2 4 1 0 2 0 1 3 2 0 1 0 
0 2 0 0 1 0 2 4 1 2 3 5 0 0 4 
0 0 5 3 0 9 6 1 8 1 0 2 1 0 0 
4 4 2 0 2 0 0 0 2 4 5 9 0 0 0 
0 0 0 0 0 0 0 0 0 0 0 0 0 0 0 
0 0 0 0 0 0 0 0 0 0 0 0 0 0 0 
0 0 0 0 0 0 0 0 0 0 0 0 0 0 0 
0 0 0 0 0 0 2 2 2 0 0 0 0 0 0 
0 0 0 0 0 0 12 12 12 13 13 13 0 0 0 
0 0 0 0 0 0 0 0 0 2 2 2 0 0 0 
0 0 0 0 0 0 0 0 0 0 0 0 0 0 0 
0 0 0 0 0 0 0 0 0 0 0 0 0 0 0 
0 0 0 0 0 0 0 0 0 0 0 0 0 0 0 
0 0 0 0 0 0 8 8 8 0 0 0 5 5 7 
0 0 4 0 0 4 3 3 5 1 1 3 0 0 0 
1 0 0 0 0 0 8 8 10 1 1 1 0 1 0 
0 2 1 2 5 10 0 1 10 2 2 2 0 0 0 
0 0 0 1 1 1 0 0 2 0 0 2 0 0 4 
0 0 4 1 1 0 0 0 2 3 2 7 1 0 5 
4 4 4 0 0 0 0 0 0 3 2 7 2 0 18 
0 0 11 3 2 7 0 0 2 2 1 6 0 0 5 
2 1 9 0 0 7 0 1 0 3 4 0 0 0 0 
1 1 1 4 4 6 0 0 2 2 2 4 0 0 0 
0 0 2 0 0 0 8 9 4 0 0 0 2 2 4 
0 0 5 0 0 4 3 3 5 3 3 11 0 0 4 
1 3 2 5 6 8 0 0 4 0 0 4 3 5 4 
0 1 0 0 1 0 4 6 5 3 5 4 3 4 6 
0 0 2 0 0 4 0 1 5 2 3 8 11 8 15 
1 0 2 5 3 4 6 7 2 0 1 0 1 3 0 
0 0 2 0 0 4 0 0 0 0 0 0 0 0 0 
0 0 0 0 0 0 0 0 0 0 0 0 0 0 0 
0 0 0 0 0 0 0 0 0 0 0 0 0 0 0 
0 0 0 0 0 0 0 0 0 0 0 0 0 0 0 
2 2 2 0 0 0 0 0 0 0 0 0 0 0 0 
12 12 12 13 13 13 0 0 0 0 0 0 0 0 0 
0 0 0 2 2 2 0 0 0 0 0 0 0 0 0 
0 0 0 0 0 0 0 0 0 0 0 0 0 0 0 
0 0 0 0 0 0 0 0 0 0 0 0 0 0 0 
0 0 0 0 0 0 0 0 0 0 0 0 0 0 0 
0 0 2 0 0 2 0 0 0 0 0 0 1 1 0 
0 1 0 0 1 0 1 2 0 3 2 0 1 0 2 
1 0 5 1 0 5 7 5 10 0 0 4 0 0 7 
4 2 16 8 7 5 1 0 0 6 4 7 1 0 4 
7 5 10 1 0 4 1 0 2 1 0 0 1 0 7 
6 3 10 3 1 6 1 0 2 6 4 9 1 0 5 
4 1 8 1 0 7 3 0 9 3 2 0 3 3 0 
1 1 0 7 7 0 4 3 1 1 0 0 1 0 0 
0 0 0 0 0 0 0 0 0 3 3 1 0 1 0 
0 1 0 4 5 0 0 1 0 1 0 5 11 9 12 
1 0 0 11 9 12 1 0 5 8 5 12 1 0 0 
1 0 0 1 0 2 5 3 6 1 0 2 1 0 2 
4 2 3 2 0 1 1 0 0 7 5 6 1 0 0 
1 0 0 1 0 2 1 0 4 5 3 8 1 0 2 
3 1 2 1 0 0 0 0 2 7 7 7 0 1 0 
0 1 0 0 1 0 0 0 0 5 6 10 0 0 5 
0 0 0 0 0 0 0 0 0 0 0 0 0 0 0 
0 0 0 0 0 0 0 0 0 0 0 0 0 0 0 
0 0 0 0 0 0 0 0 0 0 0 0 0 0 0 
0 0 0 0 0 0 0 0 0 2 2 2 0 0 0 
0 0 0 0 0 0 0 0 0 12 12 12 13 13 13 
0 0 0 0 0 0 0 0 0 0 0 0 2 2 2 
0 0 0 0 0 0 0 0 0 0 0 0 0 0 0 
0 0 0 0 0 0 0 0 0 0 0 0 0 0 0 
0 0 0 0 0 0 0 0 0 0 0 0 0 0 0 
0 0 0 0 0 0 0 0 0 0 0 5 0 0 4 
3 3 3 0 1 0 0 1 0 2 3 0 0 1 0 
0 1 0 3 3 0 1 0 0 1 0 5 7 4 11 
3 0 0 6 2 0 3 0 2 3 0 7 3 0 0 
3 0 0 4 0 1 3 0 0 3 0 0 3 0 0 
5 2 0 3 0 0 3 0 9 3 0 2 15 11 8 
3 0 0 3 0 2 13 8 15 3 0 4 4 0 1 
1 0 7 4 3 1 1 1 0 1 1 0 1 0 0 
1 0 4 7 5 10 1 0 0 1 1 3 0 0 0 
3 3 1 2 3 0 0 1 0 1 2 0 2 3 0 
0 1 0 6 1 7 3 0 0 3 0 0 10 6 5 
3 0 4 7 2 8 3 0 0 6 4 0 8 8 0 
1 0 0 1 0 0 4 3 1 2 2 0 1 1 0 
3 2 0 4 2 5 2 1 0 1 0 0 10 9 7 
5 3 4 3 2 0 1 0 0 1 0 0 5 5 0 
0 0 2 5 7 6 1 3 0 0 2 0 4 6 1 
0 0 0 0 0 4 7 6 12 0 0 0 0 0 0 
0 0 0 0 0 0 0 0 0 0 0 0 0 0 0 
0 0 0 0 0 0 0 0 0 0 0 0 0 0 0 
0 0 0 0 0 0 0 0 0 0 0 0 0 0 0 
0 0 0 2 2 2 0 0 0 0 0 0 0 0 0 
0 0 0 12 12 12 13 13 13 0 0 0 0 0 0 
0 0 0 0 0 0 2 2 2 0 0 0 0 0 0 
0 0 0 0 0 0 0 0 0 0 0 0 0 0 0 
0 0 0 0 0 0 0 0 0 0 0 0 0 0 0 
0 0 0 0 0 0 0 0 0 0 0 0 0 0 0 
0 0 0 1 0 8 0 0 4 4 4 2 4 5 0 
0 1 0 2 3 0 0 0 0 5 5 5 4 8 0 
0 1 0 4 2 13 4 1 10 1 0 0 6 4 0 
6 2 0 5 0 0 1 0 0 7 6 4 1 0 0 
5 4 0 1 0 0 2 2 0 1 1 0 4 4 0 
2 0 8 5 4 0 1 1 0 15 15 7 7 5 10 
1 0 9 1 0 0 5 5 0 0 0 2 3 4 0 
0 2 0 7 8 2 0 0 5 0 0 11 8 7 12 
1 2 0 0 0 5 2 2 4 0 1 0 3 4 0 
3 4 0 0 1 0 5 5 5 0 0 2 1 0 4 
1 0 0 11 12 0 1 1 0 8 6 7 1 0 4 
2 1 0 4 5 0 0 3 0 2 3 0 0 0 4 
0 0 0 0 2 0 9 11 0 4 5 0 0 0 7 
0 0 0 2 2 0 5 5 3 0 1 0 1 2 0 
18 19 11 0 1 0 0 1 0 0 0 9 2 7 11 
0 1 2 5 7 4 4 6 3 0 0 0 1 1 3 
1 0 4 0 0 0 0 0 0 0 0 0 0 0 0 
0 0 0 0 0 0 0 0 0 0 0 0 0 0 0 
0 0 0 0 0 0 0 0 0 0 0 0 0 0 0 
0 0 0 0 0 0 0 0 0 0 0 0 2 2 2 
0 0 0 0 0 0 0 0 0 0 0 0 12 12 12 
13 13 13 0 0 0 0 0 0 0 0 0 0 0 0 
2 2 2 0 0 0 0 0 0 0 0 0 0 0 0 
0 0 0 0 0 0 0 0 0 0 0 0 0 0 0 
0 0 0 0 0 0 0 0 0 0 0 0 0 0 0 
0 0 0 0 0 0 0 0 0 0 0 0 0 0 7 
5 5 7 0 1 0 10 11 3 0 1 0 5 5 5 
144 143 151 255 253 255 239 248 243 251 255 255 147 147 173 
248 246 255 155 155 155 4 5 0 3 1 0 159 156 147 
254 253 255 251 251 255 254 255 255 143 145 144 153 155 152 
243 245 244 254 255 255 253 254 255 254 254 255 152 154 153 
148 151 142 250 251 253 250 248 255 254 252 255 254 255 255 
147 151 136 251 255 255 245 252 245 251 255 251 251 255 255 
242 244 255 251 253 255 239 243 252 150 158 147 1 0 6 
8 8 10 0 1 0 8 9 3 0 1 0 7 7 9 
145 143 154 255 252 255 249 248 255 153 155 154 0 3 0 
150 153 144 249 250 255 252 251 255 254 253 255 254 255 255 
162 168 156 232 235 242 252 253 255 252 253 255 241 245 246 
252 255 251 247 250 255 252 252 255 252 253 255 252 254 255 
240 243 252 154 158 161 252 255 255 236 240 243 252 255 255 
252 255 255 249 254 255 249 255 255 143 147 158 0 3 8 
0 0 2 12 12 12 2 0 1 1 0 2 0 0 0 
0 0 0 0 0 0 0 0 0 0 0 0 0 0 0 
0 0 0 0 0 0 0 0 0 0 0 0 0 0 0 
0 0 0 0 0 0 0 0 0 0 0 0 0 0 0 
0 0 0 0 0 0 2 2 2 0 0 0 0 0 0 
0 0 0 0 0 0 12 12 12 13 13 13 0 0 0 
0 0 0 0 0 0 0 0 0 2 2 2 0 0 0 
0 0 0 0 0 0 0 0 0 0 0 0 0 0 0 
0 0 0 0 0 0 0 0 0 0 0 0 0 0 0 
0 0 0 0 0 0 0 0 0 0 0 0 0 0 0 
0 0 0 0 0 0 0 0 5 0 0 2 6 7 2 
0 1 0 1 1 0 148 147 155 255 252 255 170 166 193 
162 170 189 139 145 181 248 250 255 135 134 176 249 251 255 
0 2 0 0 2 0 255 255 251 180 181 227 161 163 201 
161 165 190 249 255 255 244 251 255 181 187 203 175 179 204 
175 178 209 180 184 209 248 254 255 249 255 255 165 170 192 
174 175 223 148 149 197 171 176 196 248 255 249 170 177 206 
174 181 207 180 186 220 161 164 219 153 153 227 122 122 194 
111 115 160 247 255 255 2 1 7 0 0 2 8 9 4 
0 1 0 3 3 3 155 153 164 252 248 255 174 169 201 
172 174 212 238 244 255 148 157 154 249 255 255 183 188 210 
172 174 215 181 182 228 154 156 195 237 246 255 180 185 217 
160 162 213 159 162 207 181 187 211 176 183 201 179 183 220 
158 158 218 160 161 217 158 160 208 151 156 188 248 254 255 
163 170 189 185 191 215 177 181 216 163 166 207 156 162 198 
147 152 182 244 249 255 151 155 166 1 2 6 0 0 0 
1 0 0 6 2 1 0 0 0 0 0 0 0 0 0 
0 0 0 0 0 0 0 0 0 0 0 0 0 0 0 
0 0 0 0 0 0 0 0 0 0 0 0 0 0 0 
0 0 0 0 0 0 0 0 0 0 0 0 0 0 0 
2 2 2 0 0 0 0 0 0 0 0 0 0 0 0 
12 12 12 13 13 13 0 0 0 0 0 0 0 0 0 
0 0 0 2 2 2 0 0 0 0 0 0 0 0 0 
0 0 0 0 0 0 0 0 0 0 0 0 0 0 0 
0 0 0 0 0 0 0 0 0 0 0 0 0 0 0 
0 0 0 0 0 0 0 0 0 0 0 0 0 0 0 
3 2 7 0 0 0 2 3 0 0 1 0 158 158 158 
249 247 255 173 169 196 249 243 255 242 251 255 129 135 193 
111 114 185 110 110 172 251 252 255 0 0 5 0 1 0 
255 254 255 172 170 243 166 166 226 147 150 191 240 245 255 
144 150 174 247 252 255 159 162 207 181 182 236 177 181 219 
246 252 255 248 254 255 157 160 203 144 143 211 146 145 213 
235 239 255 148 158 157 244 254 255 158 168 204 161 169 216 
140 144 217 114 115 208 90 91 181 74 80 138 238 250 255 
1 0 5 1 1 1 0 1 0 4 5 0 152 152 154 
251 248 255 179 174 206 174 167 209 158 159 216 173 178 210 
243 251 255 247 255 255 173 177 215 167 167 231 162 161 231 
138 137 205 247 254 255 133 136 191 128 127 203 145 146 213 
247 251 255 162 167 205 150 152 211 129 127 211 134 132 216 
118 118 190 122 125 180 247 252 255 247 253 255 165 169 214 
164 166 223 163 164 231 247 251 255 132 137 175 122 126 155 
242 245 255 158 158 166 0 0 0 6 5 1 3 0 0 
0 0 0 0 0 0 0 0 0 0 0 0 0 0 0 
0 0 0 0 0 0 0 0 0 0 0 0 0 0 0 
0 0 0 0 0 0 0 0 0 0 0 0 0 0 0 
0 0 0 0 0 0 0 0 0 2 2 2 0 0 0 
0 0 0 0 0 0 0 0 0 12 12 12 13 13 13 
0 0 0 0 0 0 0 0 0 0 0 0 2 2 2 
0 0 0 0 0 0 0 0 0 0 0 0 0 0 0 
0 0 0 0 0 0 0 0 0 0 0 0 0 0 0 
0 0 0 0 0 0 0 0 0 0 0 0 0 0 0 
0 0 0 0 0 0 0 0 0 0 4 0 4 0 5 
8 0 4 1 1 0 240 247 255 160 168 217 157 157 229 
247 251 252 151 147 161 248 253 255 86 96 157 90 93 188 
251 255 255 3 1 0 152 149 132 255 254 255 153 159 217 
148 158 220 134 142 217 245 255 249 0 1 0 255 252 255 
173 166 218 170 170 240 180 175 215 249 255 255 224 236 255 
146 162 214 121 131 216 110 111 203 251 254 255 0 3 0 
248 246 255 156 158 217 132 145 223 112 122 207 241 255 244 
80 74 120 65 58 110 251 251 255 1 2 0 6 0 11 
6 0 0 0 1 0 237 251 251 174 181 235 167 168 212 
255 252 255 255 254 255 152 158 218 140 151 205 251 255 255 
250 251 237 155 154 220 140 152 202 107 114 205 255 248 238 
252 255 248 126 116 215 250 250 248 251 253 255 132 142 211 
117 132 199 99 104 198 255 254 255 105 106 163 100 95 187 
252 251 255 251 255 251 151 161 222 145 156 222 147 151 215 
245 252 255 126 127 219 83 88 179 86 89 158 254 252 255 
3 0 0 3 4 0 0 4 0 0 0 0 0 0 0 
0 0 0 0 0 0 0 0 0 0 0 0 0 0 0 
0 0 0 0 0 0 0 0 0 0 0 0 0 0 0 
0 0 0 0 0 0 0 0 0 0 0 0 0 0 0 
0 0 0 2 2 2 0 0 0 0 0 0 0 0 0 
0 0 0 13 13 13 13 13 13 0 0 0 0 0 0 
0 0 0 0 0 0 2 2 2 0 0 0 0 0 0 
0 0 0 0 0 0 0 0 0 0 0 0 0 0 0 
0 0 0 0 0 0 0 0 0 0 0 0 0 0 0 
0 0 0 0 0 0 0 0 0 0 0 0 0 0 0 
0 0 0 0 4 0 1 0 4 6 0 2 7 7 0 
247 255 255 141 151 204 133 133 205 250 255 255 3 0 0 
250 255 255 76 88 128 85 86 179 246 248 255 1 0 4 
255 253 255 156 152 203 150 155 210 138 147 214 116 123 204 
245 255 255 8 9 3 255 253 255 158 154 204 173 177 240 
178 175 220 225 231 255 174 183 238 110 124 185 97 106 185 
92 95 176 251 255 255 0 2 0 255 253 255 126 127 191 
120 133 211 83 94 176 245 255 248 254 248 255 49 44 85 
252 254 255 3 4 0 4 0 9 6 0 2 9 12 5 
245 255 255 155 164 221 153 155 203 255 254 255 255 255 253 
131 137 199 147 157 218 244 247 255 255 255 250 151 149 222 
118 130 190 87 96 191 255 254 251 250 255 252 98 92 182 
255 255 253 251 253 255 122 132 201 104 119 188 86 91 185 
255 255 255 248 250 255 81 79 154 252 252 255 246 251 245 
128 136 199 142 152 224 124 128 199 249 255 255 93 95 178 
73 80 161 67 71 132 246 245 255 4 0 0 7 8 2 
0 4 0 0 0 0 0 0 0 0 0 0 0 0 0 
0 0 0 0 0 0 0 0 0 0 0 0 0 0 0 
0 0 0 0 0 0 0 0 0 0 0 0 0 0 0 
0 0 0 0 0 0 0 0 0 0 0 0 2 2 2 
0 0 0 0 0 0 0 0 0 0 0 0 13 13 13 
13 13 13 0 0 0 0 0 0 0 0 0 0 0 0 
2 2 2 0 0 0 0 0 0 0 0 0 0 0 0 
0 0 0 0 0 0 0 0 0 0 0 0 0 0 0 
0 0 0 0 0 0 0 0 0 0 0 0 0 0 0 
0 0 0 0 0 0 0 0 0 0 0 0 0 6 0 
2 0 3 11 5 9 142 143 137 242 249 255 147 156 215 
120 122 197 251 255 255 8 3 0 148 153 133 236 249 255 
79 80 160 251 253 255 9 9 9 246 249 255 131 131 203 
129 136 178 118 126 201 99 104 195 247 254 255 141 141 141 
255 254 255 147 146 190 149 155 213 157 157 211 170 175 217 
124 130 206 87 97 169 79 87 159 77 80 147 251 255 255 
3 4 0 255 253 255 128 128 198 99 111 193 88 99 181 
245 255 251 248 244 255 48 46 70 252 255 255 0 2 0 
4 0 7 10 4 8 139 142 133 236 248 255 155 163 226 
146 147 201 255 254 255 253 254 248 137 142 210 126 136 208 
240 242 255 255 254 255 122 119 198 99 108 183 80 88 187 
254 253 255 249 255 255 87 83 159 255 255 253 241 242 255 
119 127 199 88 102 175 65 70 162 251 253 248 242 247 255 
83 85 133 255 254 255 254 255 251 112 119 189 108 119 199 
114 119 201 251 255 255 85 87 161 55 64 129 48 52 100 
255 253 255 5 0 3 1 0 0 0 3 1 0 0 0 
0 0 0 0 0 0 0 0 0 0 0 0 0 0 0 
0 0 0 0 0 0 0 0 0 0 0 0 0 0 0 
0 0 0 0 0 0 0 0 0 0 0 0 0 0 0 
0 0 0 0 0 0 2 2 2 0 0 0 0 0 0 
0 0 0 0 0 0 13 13 13 13 13 13 0 0 0 
0 0 0 0 0 0 0 0 0 2 2 2 0 0 0 
0 0 0 0 0 0 0 0 0 0 0 0 0 0 0 
0 0 0 0 0 0 0 0 0 0 0 0 0 0 0 
0 0 0 0 0 0 0 0 0 0 0 0 0 0 0 
0 0 0 0 0 0 0 3 0 1 0 2 4 0 2 
252 252 250 161 167 201 133 142 207 106 107 187 250 255 255 
7 0 0 4 6 0 248 255 255 90 89 159 246 247 255 
0 2 0 241 252 246 122 128 202 246 253 255 113 118 200 
103 107 204 96 99 150 252 253 255 154 154 154 245 246 255 
147 158 214 151 152 216 142 148 208 108 111 206 84 91 171 
70 75 139 63 66 119 248 252 255 0 0 4 249 248 253 
127 126 204 104 116 200 77 88 170 244 255 255 62 58 95 
249 249 255 145 150 143 0 1 0 4 0 5 6 0 6 
250 253 244 163 174 204 144 153 222 136 136 196 255 254 255 
254 255 247 115 121 195 111 119 204 138 137 197 255 252 255 
115 114 192 101 108 196 71 79 180 251 253 255 242 249 255 
92 93 149 255 255 251 254 254 255 95 101 177 94 107 186 
71 78 168 251 255 255 74 80 112 243 248 255 157 155 158 
244 245 240 127 131 205 115 125 214 96 101 192 251 255 255 
74 78 141 45 55 104 41 47 79 255 254 255 4 0 2 
1 0 0 0 4 4 0 0 0 0 0 0 0 0 0 
0 0 0 0 0 0 0 0 0 0 0 0 0 0 0 
0 0 0 0 0 0 0 0 0 0 0 0 0 0 0 
0 0 0 0 0 0 0 0 0 0 0 0 0 0 0 
2 2 2 0 0 0 0 0 0 0 0 0 0 0 0 
13 13 13 13 13 13 0 0 0 0 0 0 0 0 0 
0 0 0 2 2 2 0 0 0 0 0 0 0 0 0 
0 0 0 0 0 0 0 0 0 0 0 0 0 0 0 
0 0 0 0 0 0 0 0 0 0 0 0 0 0 0 
0 0 0 0 0 0 0 0 0 0 0 0 0 0 0 
0 6 0 3 3 5 3 0 2 254 255 255 142 149 191 
130 138 211 105 107 190 249 255 255 6 0 7 0 2 1 
247 255 253 106 105 165 255 252 255 0 1 0 248 255 255 
111 119 204 247 255 255 110 114 203 102 106 206 95 98 167 
252 255 255 253 255 254 144 148 196 134 145 209 142 148 224 
125 132 202 97 99 200 75 78 157 57 62 118 56 57 103 
252 255 255 0 0 8 255 255 253 121 118 205 117 128 217 
82 93 175 245 255 255 52 47 87 254 255 253 0 5 0 
0 1 0 9 4 8 3 0 7 252 255 246 140 148 194 
133 140 218 126 126 196 252 253 255 254 255 248 119 124 205 
105 114 209 121 118 195 249 248 255 119 119 189 87 96 189 
81 91 188 244 249 255 89 98 141 248 252 255 145 141 138 
252 251 255 120 126 204 105 120 205 79 89 176 249 255 255 
72 80 117 249 255 255 6 0 6 255 255 251 114 117 194 
115 126 216 100 107 198 250 255 255 64 66 125 42 55 90 
36 43 62 255 254 255 8 0 6 5 0 6 0 1 2 
0 0 0 0 0 0 0 0 0 0 0 0 0 0 0 
0 0 0 0 0 0 0 0 0 0 0 0 0 0 0 
0 0 0 0 0 0 0 0 0 0 0 0 0 0 0 
0 0 0 0 0 0 0 0 0 2 2 2 0 0 0 
0 0 0 0 0 0 0 0 0 13 13 13 13 13 13 
0 0 0 0 0 0 0 0 0 0 0 0 2 2 2 
0 0 0 0 0 0 0 0 0 0 0 0 0 0 0 
0 0 0 0 0 0 0 0 0 0 0 0 0 0 0 
0 0 0 0 0 0 0 0 0 0 0 0 0 0 0 
0 0 0 0 0 0 0 0 0 0 4 0 1 1 1 
3 0 2 252 253 255 147 153 203 129 136 217 104 106 193 
244 253 252 0 1 0 1 9 0 149 163 140 250 251 255 
154 152 155 5 3 0 245 254 249 117 123 207 248 255 255 
107 108 201 103 107 207 95 96 179 252 255 255 247 251 252 
140 145 203 115 128 207 119 127 212 102 112 183 78 81 176 
59 62 133 53 54 108 58 56 105 252 255 255 0 0 5 
251 253 242 137 133 227 110 121 211 91 101 188 245 254 255 
67 61 109 253 255 249 0 2 0 0 1 0 6 4 5 
3 0 9 251 255 243 144 153 212 134 140 226 125 124 200 
248 250 249 254 255 251 104 110 196 104 112 211 103 99 183 
254 255 255 113 119 169 87 96 187 82 94 180 85 94 149 
85 95 154 242 251 255 8 4 1 255 251 250 130 132 215 
103 117 206 88 100 184 248 252 255 80 86 138 246 254 239 
6 0 7 255 250 250 138 140 217 110 121 210 100 111 200 
252 254 255 65 66 130 42 53 83 247 255 255 155 154 150 
6 0 5 8 3 9 0 3 2 0 0 0 0 0 0 
0 0 0 0 0 0 0 0 0 0 0 0 0 0 0 
0 0 0 0 0 0 0 0 0 0 0 0 0 0 0 
0 0 0 0 0 0 0 0 0 0 0 0 0 0 0 
0 0 0 2 2 2 0 0 0 0 0 0 0 0 0 
0 0 0 13 13 13 13 13 13 0 0 0 0 0 0 
0 0 0 0 0 0 2 2 2 0 0 0 0 0 0 
0 0 0 0 0 0 0 0 0 0 0 0 0 0 0 
0 0 0 0 0 0 0 0 0 0 0 0 0 0 0 
0 0 0 0 0 0 0 0 0 0 0 0 0 0 0 
0 0 0 0 5 0 0 1 0 3 0 2 254 254 255 
131 138 192 123 130 218 110 111 201 248 255 255 249 255 255 
243 251 255 246 255 254 250 251 255 148 143 139 7 0 0 
252 255 251 122 126 199 248 255 243 123 123 219 107 111 208 
89 88 181 251 255 255 249 254 255 108 113 181 109 121 219 
99 110 202 88 101 169 68 73 155 52 54 115 52 52 106 
56 51 105 252 253 255 0 0 2 255 255 241 130 126 221 
112 123 215 91 101 190 70 77 119 64 56 115 251 253 248 
1 5 6 0 0 4 1 0 0 3 0 11 251 255 244 
125 132 204 123 130 221 112 113 195 250 255 251 251 255 254 
95 100 191 95 103 202 93 89 173 252 255 250 231 240 255 
90 102 186 66 83 155 73 83 152 69 81 153 247 255 255 
4 0 0 255 254 247 127 127 213 110 123 217 87 99 181 
92 93 157 78 83 151 249 255 237 10 0 15 255 252 255 
125 127 202 120 135 218 92 107 188 98 97 128 73 73 143 
241 252 255 138 147 154 1 0 0 7 0 5 3 0 4 
0 1 0 0 0 0 0 0 0 0 0 0 0 0 0 
0 0 0 0 0 0 0 0 0 0 0 0 0 0 0 
0 0 0 0 0 0 0 0 0 0 0 0 0 0 0 
0 0 0 0 0 0 0 0 0 0 0 0 2 2 2 
0 0 0 0 0 0 0 0 0 0 0 0 13 13 13 
13 13 13 0 0 0 0 0 0 0 0 0 0 0 0 
2 2 2 0 0 0 0 0 0 0 0 0 0 0 0 
0 0 0 0 0 0 0 0 0 0 0 0 0 0 0 
0 0 0 0 0 0 0 0 0 0 0 0 0 0 0 
0 0 0 0 0 0 0 0 0 0 0 0 0 6 0 
0 1 0 4 0 3 252 255 255 127 133 191 110 117 207 
103 107 198 248 255 255 119 118 198 123 123 219 137 143 195 
132 127 181 255 249 255 8 0 12 250 249 255 137 136 212 
241 253 229 122 122 218 99 104 198 95 93 190 249 254 255 
251 255 255 108 114 190 85 97 205 84 97 193 80 94 157 
62 69 141 45 48 101 53 50 105 55 49 109 254 254 255 
5 7 4 251 254 233 125 121 218 100 110 205 76 85 176 
75 81 131 54 45 110 251 253 250 0 0 7 0 0 5 
5 4 0 3 0 11 250 255 243 125 131 207 113 119 213 
97 97 183 252 255 253 252 255 255 98 103 195 81 91 188 
94 91 172 252 255 241 245 255 255 78 91 169 69 87 153 
66 78 152 64 75 154 246 255 252 4 0 0 255 255 246 
115 115 203 102 115 211 76 88 170 74 75 155 66 69 150 
252 255 239 10 0 20 255 247 250 136 138 213 108 124 202 
101 117 192 250 248 255 80 78 153 59 70 98 249 255 255 
149 146 141 7 0 7 8 1 8 0 1 0 0 0 0 
0 0 0 0 0 0 0 0 0 0 0 0 0 0 0 
0 0 0 0 0 0 0 0 0 0 0 0 0 0 0 
0 0 0 0 0 0 0 0 0 0 0 0 0 0 0 
0 0 0 0 0 0 2 2 2 0 0 0 0 0 0 
0 0 0 0 0 0 13 13 13 13 13 13 0 0 0 
0 0 0 0 0 0 0 0 0 2 2 2 0 0 0 
0 0 0 0 0 0 0 0 0 0 0 0 0 0 0 
0 0 0 0 0 0 0 0 0 0 0 0 0 0 0 
0 0 0 0 0 0 0 0 0 0 0 0 0 0 0 
0 0 0 0 0 0 4 0 15 4 0 0 4 6 0 
248 255 255 102 112 197 99 109 220 99 107 179 248 254 255 
251 255 255 117 129 187 107 120 222 112 121 200 255 253 255 
153 147 133 254 252 255 124 130 190 251 255 255 119 123 197 
93 108 175 84 95 177 245 255 255 251 254 255 97 92 186 
91 94 173 78 94 182 81 92 148 246 254 255 61 60 130 
52 60 107 48 55 110 251 255 251 4 1 0 251 247 255 
118 127 192 91 105 194 90 96 156 246 248 255 50 45 111 
249 255 255 0 4 0 3 2 16 1 1 0 0 4 0 
247 254 255 108 116 199 106 112 224 94 96 170 254 253 255 
248 255 255 88 91 168 80 87 165 81 82 164 249 251 255 
252 255 244 82 82 168 64 77 147 64 72 157 64 67 100 
255 253 255 1 1 0 247 255 255 113 122 197 101 110 201 
77 86 165 252 255 255 74 78 142 248 255 255 3 6 0 
247 246 255 129 135 197 121 128 219 112 115 186 252 252 255 
85 85 155 60 67 145 50 61 106 251 255 255 1 2 0 
0 0 2 0 4 0 0 0 0 0 0 0 0 0 0 
0 0 0 0 0 0 0 0 0 0 0 0 0 0 0 
0 0 0 0 0 0 0 0 0 0 0 0 0 0 0 
0 0 0 0 0 0 0 0 0 0 0 0 0 0 0 
2 2 2 0 0 0 0 0 0 0 0 0 0 0 0 
13 13 13 13 13 13 0 0 0 0 0 0 0 0 0 
0 0 0 2 2 2 0 0 0 0 0 0 0 0 0 
0 0 0 0 0 0 0 0 0 0 0 0 0 0 0 
0 0 0 0 0 0 0 0 0 0 0 0 0 0 0 
0 0 0 0 0 0 0 0 0 0 0 0 0 0 0 
3 0 13 4 0 0 4 2 0 243 249 255 107 117 189 
93 104 212 97 104 176 249 255 255 247 254 246 113 120 200 
109 120 228 103 111 184 253 255 254 255 250 247 132 124 181 
242 253 255 242 246 255 125 130 194 107 120 199 81 92 172 
242 255 255 251 255 250 99 95 171 245 254 255 83 98 191 
73 83 145 248 255 255 64 62 137 56 63 115 55 61 119 
250 255 252 3 0 0 255 254 255 114 122 197 93 106 198 
85 90 156 252 254 255 67 64 119 244 250 255 151 157 147 
0 0 7 1 0 0 2 5 0 248 255 255 109 119 191 
94 100 210 97 99 174 252 254 255 247 255 255 81 85 159 
70 78 153 77 80 151 252 255 255 254 255 250 72 70 154 
58 72 137 42 49 127 63 67 94 255 253 255 8 8 0 
248 255 255 105 114 191 105 114 207 79 88 167 244 247 254 
81 87 137 243 247 255 146 147 139 254 254 255 130 135 201 
118 125 216 115 116 198 255 253 255 92 93 160 58 66 141 
67 78 124 251 255 255 4 5 0 0 0 4 0 2 0 
0 0 0 0 0 0 0 0 0 0 0 0 0 0 0 
0 0 0 0 0 0 0 0 0 0 0 0 0 0 0 
0 0 0 0 0 0 0 0 0 0 0 0 0 0 0 
0 0 0 0 0 0 0 0 0 2 2 2 0 0 0 
0 0 0 0 0 0 0 0 0 13 13 13 13 13 13 
0 0 0 0 0 0 0 0 0 0 0 0 2 2 2 
0 0 0 0 0 0 0 0 0 0 0 0 0 0 0 
0 0 0 0 0 0 0 0 0 0 0 0 0 0 0 
0 0 0 0 0 0 0 0 0 0 0 0 0 0 0 
0 0 0 0 0 0 0 0 0 2 2 4 3 0 4 
3 0 0 251 255 255 91 100 155 95 103 204 91 95 168 
249 255 255 251 255 250 99 103 194 96 105 206 79 84 165 
254 255 253 255 254 251 121 109 195 242 255 255 134 133 164 
115 120 186 111 118 234 109 117 218 238 243 255 251 255 250 
111 106 186 245 255 255 92 104 202 87 94 162 247 252 255 
74 69 149 67 72 127 61 67 127 251 255 255 13 9 8 
251 251 251 120 126 214 108 121 213 86 89 166 251 253 255 
60 59 99 64 68 95 248 252 253 0 1 0 3 1 4 
1 0 0 251 255 255 93 102 157 100 105 209 91 93 168 
252 255 255 249 255 255 80 82 156 63 70 142 65 68 119 
249 251 250 254 255 255 69 68 144 60 73 128 61 70 135 
243 249 255 153 149 150 1 1 0 247 254 255 124 131 211 
104 113 206 84 91 171 252 255 255 83 92 121 99 99 163 
255 254 255 248 251 244 136 140 213 127 134 224 113 112 206 
255 252 255 92 91 157 74 83 152 49 57 104 249 253 255 
1 1 0 2 1 9 0 4 3 0 0 0 0 0 0 
0 0 0 0 0 0 0 0 0 0 0 0 0 0 0 
0 0 0 0 0 0 0 0 0 0 0 0 0 0 0 
0 0 0 0 0 0 0 0 0 0 0 0 0 0 0 
0 0 0 2 2 2 0 0 0 0 0 0 0 0 0 
0 0 0 13 13 13 13 13 13 0 0 0 0 0 0 
0 0 0 0 0 0 2 2 2 0 0 0 0 0 0 
0 0 0 0 0 0 0 0 0 0 0 0 0 0 0 
0 0 0 0 0 0 0 0 0 0 0 0 0 0 0 
0 0 0 0 0 0 0 0 0 0 0 0 0 0 0 
0 0 0 0 2 0 4 0 10 8 2 4 142 145 136 
245 253 255 82 87 178 73 76 145 251 255 255 252 255 255 
83 84 166 82 90 163 77 78 170 248 251 255 246 246 234 
106 95 191 245 255 253 244 244 255 124 129 184 104 107 236 
94 98 206 111 112 179 247 251 252 105 99 189 243 255 246 
81 89 188 90 93 160 250 252 255 73 68 148 62 67 123 
67 73 135 246 254 255 1 0 0 255 255 250 110 114 211 
93 107 196 89 92 171 252 254 255 251 252 255 51 53 91 
252 255 255 0 4 0 0 0 9 3 0 0 150 153 146 
239 249 255 91 96 188 90 92 166 246 251 255 246 252 252 
73 77 140 50 56 118 248 253 255 152 153 148 255 254 255 
63 63 125 55 69 118 34 46 98 251 255 255 3 0 0 
3 0 0 249 254 255 112 119 200 110 116 210 83 91 166 
252 255 255 245 255 255 94 92 176 255 253 255 254 255 243 
126 130 204 116 124 209 107 105 206 252 249 255 84 85 142 
69 77 139 54 62 108 252 254 255 3 0 0 3 0 11 
0 2 3 0 0 0 0 0 0 0 0 0 0 0 0 
0 0 0 0 0 0 0 0 0 0 0 0 0 0 0 
0 0 0 0 0 0 0 0 0 0 0 0 0 0 0 
0 0 0 0 0 0 0 0 0 0 0 0 2 2 2 
0 0 0 0 0 0 0 0 0 0 0 0 13 13 13 
13 13 13 0 0 0 0 0 0 0 0 0 0 0 0 
2 2 2 0 0 0 0 0 0 0 0 0 0 0 0 
0 0 0 0 0 0 0 0 0 0 0 0 0 0 0 
0 0 0 0 0 0 0 0 0 0 0 0 0 0 0 
0 0 0 0 0 0 0 0 0 0 0 0 0 3 0 
1 0 11 14 4 12 3 1 0 249 254 255 79 83 156 
79 81 142 250 253 255 252 255 255 69 68 138 56 63 117 
59 58 136 252 255 255 255 255 253 93 82 184 243 255 246 
155 158 149 238 248 255 82 90 188 86 94 179 107 106 174 
248 251 255 91 83 169 243 255 242 91 97 185 63 65 122 
246 248 255 74 68 142 56 62 114 56 62 124 249 255 255 
0 0 2 255 255 251 106 111 205 83 98 181 79 83 157 
249 251 255 246 247 255 49 51 90 252 254 255 0 9 0 
2 0 13 4 0 4 6 6 0 247 255 255 87 93 167 
79 83 147 249 255 255 251 255 255 49 52 103 40 46 94 
247 254 255 1 0 0 255 252 255 54 56 97 56 68 116 
52 63 108 246 251 254 4 0 0 10 7 2 243 248 255 
106 111 193 97 104 192 78 85 153 243 246 255 243 255 255 
94 91 178 249 246 255 254 255 243 107 111 184 84 93 172 
81 81 171 251 247 255 83 83 133 38 49 95 41 49 88 
243 244 255 164 160 161 1 0 9 0 0 2 0 0 0 
0 0 0 0 0 0 0 0 0 0 0 0 0 0 0 
0 0 0 0 0 0 0 0 0 0 0 0 0 0 0 
0 0 0 0 0 0 0 0 0 0 0 0 0 0 0 
0 0 0 0 0 0 2 2 2 0 0 0 0 0 0 
0 0 0 0 0 0 13 13 13 13 13 13 0 0 0 
0 0 0 0 0 0 0 0 0 2 2 2 0 0 0 
0 0 0 0 0 0 0 0 0 0 0 0 0 0 0 
0 0 0 0 0 0 0 0 0 0 0 0 0 0 0 
0 0 0 0 0 0 0 0 0 0 0 0 0 0 0 
0 0 0 0 0 0 0 4 0 0 0 9 7 0 2 
10 4 0 252 255 255 83 86 137 67 69 118 251 253 255 
250 252 247 68 66 129 44 48 95 55 58 99 250 254 253 
252 252 255 81 73 174 247 255 251 148 152 135 247 253 255 
89 99 170 70 78 150 75 75 139 254 252 255 64 56 141 
247 255 255 52 59 127 67 69 108 252 254 251 58 52 114 
41 48 94 54 60 118 242 252 253 8 7 12 255 254 255 
76 83 164 87 104 176 67 73 131 250 253 255 69 68 112 
50 53 88 250 253 255 0 5 0 0 0 9 6 0 2 
4 2 0 246 253 255 78 85 139 72 79 131 241 248 255 
252 253 255 49 54 86 43 50 78 246 252 252 7 6 4 
157 151 163 251 254 255 46 56 107 36 48 88 252 255 255 
5 0 0 5 0 0 251 253 255 97 102 183 75 82 162 
67 76 131 252 255 255 79 88 121 77 75 148 255 253 255 
252 254 251 83 88 152 75 85 157 61 64 133 255 252 255 
46 48 86 37 48 80 28 37 70 52 50 71 253 247 251 
3 0 7 0 1 0 0 0 0 0 0 0 0 0 0 
0 0 0 0 0 0 0 0 0 0 0 0 0 0 0 
0 0 0 0 0 0 0 0 0 0 0 0 0 0 0 
0 0 0 0 0 0 0 0 0 0 0 0 0 0 0 
2 2 2 0 0 0 0 0 0 0 0 0 0 0 0 
13 13 13 13 13 13 0 0 0 0 0 0 0 0 0 
0 0 0 2 2 2 0 0 0 0 0 0 0 0 0 
0 0 0 0 0 0 0 0 0 0 0 0 0 0 0 
0 0 0 0 0 0 0 0 0 0 0 0 0 0 0 
0 0 0 0 0 0 0 0 0 0 0 0 0 0 0 
0 4 2 6 5 10 9 0 0 7 0 0 146 145 150 
240 243 255 73 76 111 252 250 255 252 254 253 54 54 90 
40 44 73 246 252 255 251 255 255 68 68 104 72 68 145 
243 252 255 254 255 251 72 73 138 50 63 115 60 70 132 
64 66 117 54 50 87 53 46 116 42 47 77 48 56 102 
249 252 255 253 255 235 44 40 90 36 44 80 42 49 103 
248 255 255 151 152 156 252 250 255 77 86 151 44 62 126 
54 63 104 252 255 255 38 33 97 39 43 70 252 255 255 
0 3 2 0 0 5 9 0 0 6 0 0 151 154 161 
245 254 255 63 72 111 58 65 91 55 52 83 39 45 61 
239 249 255 151 158 150 3 0 4 4 0 4 252 255 253 
52 59 114 52 61 102 252 255 255 8 0 2 149 143 145 
247 248 255 73 79 155 66 74 146 46 58 100 252 254 255 
37 42 98 59 61 109 255 254 255 247 247 255 64 71 126 
43 54 118 47 54 98 254 248 255 34 38 65 24 37 56 
13 23 48 32 31 49 255 253 255 8 3 9 0 2 0 
0 0 0 0 0 0 0 0 0 0 0 0 0 0 0 
0 0 0 0 0 0 0 0 0 0 0 0 0 0 0 
0 0 0 0 0 0 0 0 0 0 0 0 0 0 0 
0 0 0 0 0 0 0 0 0 2 2 2 0 0 0 
0 0 0 0 0 0 0 0 0 13 13 13 13 13 13 
0 0 0 0 0 0 0 0 0 0 0 0 2 2 2 
0 0 0 0 0 0 0 0 0 0 0 0 0 0 0 
0 0 0 0 0 0 0 0 0 0 0 0 0 0 0 
0 0 0 0 0 0 0 0 0 0 0 0 0 0 0 
0 0 0 0 0 0 0 0 0 0 4 5 0 0 0 
8 0 0 13 2 0 1 0 2 152 155 174 246 247 255 
59 56 85 53 52 66 249 252 255 251 255 255 151 155 164 
247 250 255 57 58 89 60 60 110 53 57 102 255 255 251 
47 46 122 41 59 83 17 30 72 25 30 52 26 24 48 
22 20 57 22 29 48 17 26 57 251 255 255 255 255 228 
31 29 69 30 36 68 30 38 87 36 46 45 254 255 255 
57 53 76 43 55 107 30 49 105 24 35 63 29 32 37 
35 29 103 29 34 54 252 255 250 0 4 6 0 0 2 
10 0 0 8 0 0 0 0 5 143 154 176 244 255 255 
46 52 84 39 35 72 249 255 255 145 155 156 0 3 0 
4 0 7 4 0 0 250 255 241 50 56 116 47 56 97 
251 254 255 7 0 3 255 253 255 75 76 104 64 68 141 
40 49 114 30 40 75 34 36 49 39 41 115 28 33 63 
255 255 251 56 54 76 36 44 93 28 40 100 22 32 57 
33 28 35 251 253 255 17 31 42 21 29 50 254 253 255 
151 145 145 3 0 2 0 2 0 0 0 0 0 0 0 
0 0 0 0 0 0 0 0 0 0 0 0 0 0 0 
0 0 0 0 0 0 0 0 0 0 0 0 0 0 0 
0 0 0 0 0 0 0 0 0 0 0 0 0 0 0 
0 0 0 2 2 2 0 0 0 0 0 0 0 0 0 
0 0 0 13 13 13 13 13 13 0 0 0 0 0 0 
0 0 0 0 0 0 2 2 2 0 0 0 0 0 0 
0 0 0 0 0 0 0 0 0 0 0 0 0 0 0 
0 0 0 0 0 0 0 0 0 0 0 0 0 0 0 
0 0 0 0 0 0 0 0 0 0 0 0 0 0 0 
0 0 0 1 1 1 3 3 3 3 3 3 1 1 1 
0 0 0 17 17 17 144 144 144 253 253 253 255 255 255 
142 142 142 2 2 2 2 2 2 144 144 144 251 251 251 
255 255 255 254 254 254 160 160 160 240 240 240 255 255 255 
253 253 253 255 255 255 251 251 251 255 255 255 255 255 255 
254 254 254 151 151 151 158 158 158 244 244 244 252 252 252 
255 255 255 251 251 251 152 152 152 255 255 255 255 255 255 
251 251 251 255 255 255 253 253 253 255 255 255 240 240 240 
160 160 160 1 1 1 3 3 3 3 3 3 1 1 1 
0 0 0 17 17 17 144 144 144 253 253 253 255 255 255 
146 146 146 4 4 4 0 0 0 0 0 0 4 4 4 
146 146 146 255 255 255 255 255 255 139 139 139 11 11 11 
141 141 141 255 255 255 255 255 255 255 255 255 255 255 255 
253 253 253 255 255 255 246 246 246 166 166 166 251 251 251 
250 250 250 254 254 254 255 255 255 254 254 254 160 160 160 
242 242 242 255 255 255 145 145 145 5 5 5 2 2 2 
0 0 0 0 0 0 0 0 0 0 0 0 0 0 0 
0 0 0 0 0 0 0 0 0 0 0 0 0 0 0 
0 0 0 0 0 0 0 0 0 0 0 0 0 0 0 
0 0 0 0 0 0 0 0 0 0 0 0 2 2 2 
0 0 0 0 0 0 0 0 0 0 0 0 13 13 13 
13 13 13 0 0 0 0 0 0 0 0 0 0 0 0 
2 2 2 0 0 0 0 0 0 0 0 0 0 0 0 
0 0 0 0 0 0 0 0 0 0 0 0 0 0 0 
0 0 0 0 0 0 0 0 0 0 0 0 0 0 0 
0 0 0 0 0 0 0 0 0 0 0 0 3 3 3 
1 1 1 0 0 0 0 0 0 4 4 4 0 0 0 
3 3 3 4 4 4 0 0 0 7 7 7 0 0 0 
0 0 0 9 9 9 4 4 4 0 0 0 0 0 0 
0 0 0 11 11 11 2 2 2 0 0 0 4 4 4 
0 0 0 3 3 3 1 1 1 1 1 1 0 0 0 
0 0 0 7 7 7 6 6 6 0 0 0 3 3 3 
0 0 0 1 1 1 3 3 3 0 0 0 4 4 4 
0 0 0 2 2 2 11 11 11 0 0 0 3 3 3 
1 1 1 0 0 0 0 0 0 4 4 4 0 0 0 
3 3 3 4 4 4 0 0 0 5 5 5 0 0 0 
5 5 5 5 5 5 0 0 0 5 5 5 0 0 0 
0 0 0 11 11 11 0 0 0 7 7 7 6 6 6 
0 0 0 0 0 0 6 6 6 2 2 2 0 0 0 
9 9 9 0 0 0 9 9 9 5 5 5 3 3 3 
3 3 3 3 3 3 0 0 0 14 14 14 1 1 1 
9 9 9 0 0 0 0 0 0 2 2 2 0 0 0 
0 0 0 0 0 0 0 0 0 0 0 0 0 0 0 
0 0 0 0 0 0 0 0 0 0 0 0 0 0 0 
0 0 0 0 0 0 0 0 0 0 0 0 0 0 0 
0 0 0 0 0 0 2 2 2 0 0 0 0 0 0 
0 0 0 0 0 0 13 13 13 13 13 13 0 0 0 
0 0 0 0 0 0 0 0 0 2 2 2 0 0 0 
0 0 0 0 0 0 0 0 0 0 0 0 0 0 0 
0 0 0 0 0 0 0 0 0 0 0 0 0 0 0 
0 0 0 0 0 0 0 0 0 0 0 0 0 0 0 
0 0 0 0 0 0 0 0 0 2 2 2 0 0 0 
0 0 0 4 4 4 2 2 2 8 8 8 0 0 0 
0 0 0 2 2 2 5 5 5 3 3 3 0 0 0 
0 0 0 0 0 0 4 4 4 7 7 7 2 2 2 
0 0 0 1 1 1 2 2 2 0 0 0 3 3 3 
1 1 1 0 0 0 13 13 13 0 0 0 0 0 0 
1 1 1 0 0 0 3 3 3 3 3 3 1 1 1 
3 3 3 0 0 0 2 2 2 1 1 1 0 0 0 
2 2 2 7 7 7 0 0 0 2 2 2 0 0 0 
0 0 0 4 4 4 2 2 2 8 8 8 0 0 0 
0 0 0 5 5 5 4 4 4 0 0 0 0 0 0 
4 4 4 5 5 5 0 0 0 0 0 0 5 5 5 
4 4 4 0 0 0 0 0 0 6 6 6 0 0 0 
0 0 0 3 3 3 0 0 0 5 5 5 12 12 12 
0 0 0 1 1 1 0 0 0 0 0 0 0 0 0 
0 0 0 4 4 4 0 0 0 4 4 4 7 7 7 
2 2 2 1 1 1 0 0 0 0 0 0 0 0 0 
0 0 0 0 0 0 0 0 0 0 0 0 0 0 0 
0 0 0 0 0 0 0 0 0 0 0 0 0 0 0 
0 0 0 0 0 0 0 0 0 0 0 0 0 0 0 
2 2 2 0 0 0 0 0 0 0 0 0 0 0 0 
13 13 13 13 13 13 0 0 0 0 0 0 0 0 0 
0 0 0 2 2 2 0 0 0 0 0 0 0 0 0 
0 0 0 0 0 0 0 0 0 0 0 0 0 0 0 
0 0 0 0 0 0 0 0 0 0 0 0 0 0 0 
0 0 0 0 0 0 0 0 0 0 0 0 0 0 0 
0 0 0 6 6 6 5 5 5 3 3 3 0 0 0 
0 0 0 3 3 3 0 0 0 1 1 1 0 0 0 
0 0 0 0 0 0 0 0 0 2 2 2 3 3 3 
0 0 0 0 0 0 0 0 0 0 0 0 8 8 8 
3 3 3 0 0 0 2 2 2 0 0 0 0 0 0 
0 0 0 0 0 0 3 3 3 0 0 0 0 0 0 
6 6 6 0 0 0 0 0 0 2 2 2 0 0 0 
3 3 3 8 8 8 0 0 0 0 0 0 0 0 0 
0 0 0 6 6 6 5 5 5 3 3 3 0 0 0 
0 0 0 3 3 3 0 0 0 3 3 3 0 0 0 
0 0 0 0 0 0 0 0 0 0 0 0 0 0 0 
3 3 3 15 15 15 0 0 0 0 0 0 1 1 1 
0 0 0 7 7 7 0 0 0 6 6 6 8 8 8 
0 0 0 0 0 0 6 6 6 0 0 0 4 4 4 
0 0 0 3 3 3 5 5 5 0 0 0 6 6 6 
11 11 11 6 6 6 0 0 0 0 0 0 6 6 6 
0 0 0 0 0 0 0 0 0 0 0 0 0 0 0 
0 0 0 0 0 0 0 0 0 0 0 0 0 0 0 
0 0 0 0 0 0 0 0 0 0 0 0 0 0 0 
0 0 0 0 0 0 0 0 0 2 2 2 0 0 0 
0 0 0 0 0 0 0 0 0 13 13 13 13 13 13 
0 0 0 0 0 0 0 0 0 0 0 0 2 2 2 
0 0 0 0 0 0 0 0 0 0 0 0 0 0 0 
0 0 0 0 0 0 0 0 0 0 0 0 0 0 0 
0 0 0 0 0 0 0 0 0 0 0 0 0 0 0 
0 0 0 0 0 0 0 0 0 0 0 0 0 0 0 
0 0 0 0 0 0 2 2 2 2 2 2 3 3 3 
0 0 0 0 0 0 2 2 2 5 5 5 2 2 2 
0 0 0 0 0 0 0 0 0 4 4 4 0 0 0 
2 2 2 0 0 0 1 1 1 1 1 1 0 0 0 
0 0 0 0 0 0 0 0 0 7 7 7 2 2 2 
1 1 1 4 4 4 0 0 0 0 0 0 2 2 2 
0 0 0 0 0 0 0 0 0 1 1 1 1 1 1 
0 0 0 2 2 2 0 0 0 0 0 0 0 0 0 
0 0 0 0 0 0 2 2 2 2 2 2 3 3 3 
0 0 0 0 0 0 0 0 0 4 4 4 2 2 2 
2 2 2 4 4 4 0 0 0 0 0 0 0 0 0 
0 0 0 3 3 3 7 7 7 0 0 0 0 0 0 
0 0 0 4 4 4 2 2 2 0 0 0 0 0 0 
0 0 0 1 1 1 4 4 4 0 0 0 0 0 0 
1 1 1 3 3 3 0 0 0 0 0 0 0 0 0 
0 0 0 0 0 0 3 3 3 0 0 0 0 0 0 
0 0 0 0 0 0 0 0 0 0 0 0 0 0 0 
0 0 0 0 0 0 0 0 0 0 0 0 0 0 0 
0 0 0 0 0 0 0 0 0 0 0 0 0 0 0 
0 0 0 2 2 2 0 0 0 0 0 0 0 0 0 
0 0 0 13 13 13 13 13 13 0 0 0 0 0 0 
0 0 0 0 0 0 2 2 2 0 0 0 0 0 0 
0 0 0 0 0 0 0 0 0 0 0 0 0 0 0 
0 0 0 0 0 0 0 0 0 0 0 0 0 0 0 
0 0 0 0 0 0 0 0 0 0 0 0 0 0 0 
0 0 0 0 0 0 1 1 1 0 0 0 0 0 0 
0 0 0 2 2 2 0 0 0 0 0 0 3 3 3 
0 0 0 0 0 0 0 0 0 3 3 3 4 4 4 
0 0 0 0 0 0 0 0 0 0 0 0 0 0 0 
0 0 0 2 2 2 0 0 0 0 0 0 8 8 8 
2 2 2 6 6 6 0 0 0 0 0 0 1 1 1 
2 2 2 0 0 0 0 0 0 8 8 8 0 0 0 
0 0 0 2 2 2 0 0 0 0 0 0 0 0 0 
0 0 0 0 0 0 1 1 1 0 0 0 0 0 0 
0 0 0 2 2 2 0 0 0 0 0 0 2 2 2 
1 1 1 1 1 1 0 0 0 0 0 0 1 1 1 
1 1 1 2 2 2 2 2 2 5 5 5 0 0 0 
0 0 0 1 1 1 6 6 6 6 6 6 0 0 0 
0 0 0 0 0 0 2 2 2 0 0 0 7 7 7 
0 0 0 0 0 0 0 0 0 0 0 0 6 6 6 
0 0 0 0 0 0 1 1 1 7 7 7 0 0 0 
0 0 0 0 0 0 0 0 0 0 0 0 0 0 0 
0 0 0 0 0 0 0 0 0 0 0 0 0 0 0 
0 0 0 0 0 0 0 0 0 0 0 0 0 0 0 
0 0 0 0 0 0 0 0 0 0 0 0 2 2 2 
0 0 0 0 0 0 0 0 0 0 0 0 13 13 13 
13 13 13 0 0 0 0 0 0 0 0 0 0 0 0 
2 2 2 0 0 0 0 0 0 0 0 0 0 0 0 
0 0 0 0 0 0 0 0 0 0 0 0 0 0 0 
0 0 0 0 0 0 0 0 0 0 0 0 0 0 0 
0 0 0 0 0 0 0 0 0 0 0 0 0 0 0 
2 2 2 0 0 0 1 1 1 0 0 0 6 6 6 
2 2 2 1 1 1 3 3 3 3 3 3 3 3 3 
2 2 2 0 0 0 0 0 0 3 3 3 6 6 6 
0 0 0 1 1 1 0 0 0 0 0 0 0 0 0 
0 0 0 0 0 0 1 1 1 0 0 0 0 0 0 
4 4 4 3 3 3 0 0 0 0 0 0 4 4 4 
1 1 1 1 1 1 0 0 0 0 0 0 0 0 0 
0 0 0 0 0 0 1 1 1 0 0 0 0 0 0 
2 2 2 0 0 0 1 1 1 0 0 0 6 6 6 
2 2 2 1 1 1 1 1 1 0 0 0 0 0 0 
2 2 2 2 2 2 0 0 0 0 0 0 1 1 1 
0 0 0 1 1 1 0 0 0 2 2 2 0 0 0 
0 0 0 0 0 0 0 0 0 0 0 0 0 0 0 
0 0 0 0 0 0 0 0 0 0 0 0 0 0 0 
0 0 0 3 3 3 0 0 0 0 0 0 6 6 6 
0 0 0 0 0 0 3 3 3 0 0 0 0 0 0 
0 0 0 0 0 0 0 0 0 0 0 0 0 0 0 
0 0 0 0 0 0 0 0 0 0 0 0 0 0 0 
0 0 0 0 0 0 0 0 0 0 0 0 0 0 0 
0 0 0 0 0 0 2 2 2 0 0 0 0 0 0 
0 0 0 0 0 0 13 13 13 13 13 13 0 0 0 
0 0 0 0 0 0 0 0 0 2 2 2 0 0 0 
0 0 0 0 0 0 0 0 0 0 0 0 0 0 0 
0 0 0 0 0 0 0 0 0 0 0 0 0 0 0 
0 0 0 0 0 0 0 0 0 0 0 0 0 0 0 
0 0 0 0 0 0 0 0 0 0 0 0 0 0 0 
4 4 4 0 0 0 0 0 0 0 0 0 5 5 5 
1 1 1 0 0 0 0 0 0 3 3 3 0 0 0 
0 0 0 1 1 1 0 0 0 2 2 2 1 1 1 
0 0 0 0 0 0 0 0 0 6 6 6 3 3 3 
0 0 0 3 3 3 0 0 0 0 0 0 1 1 1 
0 0 0 0 0 0 0 0 0 2 2 2 0 0 0 
3 3 3 6 6 6 0 0 0 0 0 0 0 0 0 
1 1 1 2 2 2 0 0 0 0 0 0 0 0 0 
4 4 4 0 0 0 0 0 0 0 0 0 5 5 5 
0 0 0 2 2 2 4 4 4 0 0 0 0 0 0 
4 4 4 2 2 2 0 0 0 1 1 1 0 0 0 
0 0 0 0 0 0 2 2 2 8 8 8 0 0 0 
1 1 1 1 1 1 4 4 4 0 0 0 2 2 2 
0 0 0 5 5 5 2 2 2 0 0 0 0 0 0 
2 2 2 2 2 2 2 2 2 0 0 0 0 0 0 
1 1 1 0 0 0 0 0 0 0 0 0 0 0 0 
0 0 0 0 0 0 0 0 0 0 0 0 0 0 0 
0 0 0 0 0 0 0 0 0 0 0 0 0 0 0 
0 0 0 0 0 0 0 0 0 0 0 0 0 0 0 
2 2 2 0 0 0 0 0 0 0 0 0 0 0 0 
13 13 13 13 13 13 0 0 0 0 0 0 0 0 0 
0 0 0 2 2 2 0 0 0 0 0 0 0 0 0 
0 0 0 0 0 0 0 0 0 0 0 0 0 0 0 
0 0 0 0 0 0 0 0 0 0 0 0 0 0 0 
0 0 0 0 0 0 0 0 0 0 0 0 0 0 0 
0 0 0 0 0 0 0 0 0 0 0 0 0 0 0 
0 0 0 0 0 0 0 0 0 0 0 0 0 0 0 
0 0 0 0 0 0 0 0 0 0 0 0 3 3 3 
1 1 1 0 6 0 0 3 0 0 2 0 0 1 0 
0 2 1 0 0 0 7 5 6 1 0 2 4 3 8 
2 1 6 0 0 4 0 0 4 0 0 4 2 1 6 
0 0 4 0 0 4 2 2 0 0 0 0 0 0 0 
3 3 1 0 0 0 4 4 2 1 1 0 0 0 0 
0 0 4 7 8 12 0 0 4 3 4 8 0 0 4 
0 1 5 1 2 6 0 0 4 0 1 4 4 5 9 
0 0 2 1 0 2 3 1 2 0 0 0 0 1 0 
0 2 0 3 3 3 0 0 0 0 0 0 1 0 0 
3 0 0 5 1 2 5 0 1 4 0 0 0 1 4 
1 6 9 0 2 2 0 2 2 1 3 2 1 0 0 
4 0 0 9 0 1 0 0 0 0 0 0 0 0 0 
0 0 0 0 0 0 0 0 0 0 0 0 0 0 0 
0 0 0 0 0 0 0 0 0 0 0 0 0 0 0 
0 0 0 0 0 0 0 0 0 0 0 0 0 0 0 
0 0 0 0 0 0 0 0 0 0 0 0 0 0 0 
0 0 0 0 0 0 0 0 0 2 2 2 0 0 0 
0 0 0 0 0 0 0 0 0 13 13 13 13 13 13 
0 0 0 0 0 0 0 0 0 0 0 0 2 2 2 
0 0 0 0 0 0 0 0 0 0 0 0 0 0 0 
0 0 0 0 0 0 0 0 0 0 0 0 0 0 0 
0 0 0 0 0 0 0 0 0 0 0 0 0 0 0 
0 0 0 0 0 0 0 0 0 0 0 0 0 0 0 
0 0 0 0 0 0 0 0 0 0 0 0 0 0 0 
0 0 0 0 0 0 2 2 2 1 1 1 0 0 0 
6 6 6 2 2 2 1 1 1 3 3 3 1 0 0 
1 0 0 6 4 5 1 0 0 5 3 6 3 0 2 
3 0 2 3 0 4 5 1 0 3 0 0 3 0 0 
7 3 2 8 4 3 3 0 0 3 0 0 3 0 0 
3 0 0 8 4 5 8 4 5 3 0 0 4 0 1 
4 0 1 3 0 0 3 0 0 0 2 0 0 2 0 
1 7 3 0 3 0 0 6 2 0 2 0 0 2 0 
2 8 4 0 4 5 0 1 2 1 2 4 10 10 10 
1 0 0 6 2 1 4 0 0 4 0 0 3 3 3 
0 0 0 0 0 0 1 0 0 3 1 2 3 0 0 
3 0 0 10 6 7 6 6 8 0 0 2 4 5 7 
9 11 10 0 0 0 6 5 3 3 0 0 4 0 0 
0 0 0 0 0 0 0 0 0 0 0 0 0 0 0 
0 0 0 0 0 0 0 0 0 0 0 0 0 0 0 
0 0 0 0 0 0 0 0 0 0 0 0 0 0 0 
0 0 0 0 0 0 0 0 0 0 0 0 0 0 0 
0 0 0 0 0 0 0 0 0 0 0 0 0 0 0 
0 0 0 2 2 2 0 0 0 0 0 0 0 0 0 
0 0 0 13 13 13 