P3
# Created by IrfanView
16 32
255
254 254 252 255 255 253 255 250 254 255 254 255 254 252 255 
252 251 255 255 252 255 255 253 252 255 254 253 254 255 253 
245 254 253 251 255 255 255 251 255 255 249 255 255 254 255 
254 255 255 255 255 250 255 254 250 255 254 255 249 247 252 
254 254 255 255 254 255 255 253 255 255 253 253 254 253 249 
254 254 252 252 255 255 254 255 255 255 252 255 255 253 255 
253 253 253 251 255 254 255 255 243 255 255 248 255 254 255 
251 250 255 252 255 255 252 252 254 255 246 249 255 252 253 
255 255 251 255 254 250 255 251 251 255 254 255 254 255 253 
252 255 253 251 255 251 250 255 249 255 255 242 255 255 246 
255 252 253 255 253 253 255 255 240 255 255 234 255 254 232 
255 254 236 255 255 244 255 254 250 255 250 246 255 250 246 
255 254 248 252 255 248 246 253 245 249 255 250 255 253 246 
254 249 245 255 251 253 255 249 239 96 77 34 150 132 68 
152 136 61 255 255 198 255 252 231 255 250 245 101 69 58 
98 62 48 36 12 2 255 252 246 255 255 253 250 255 254 
255 254 255 255 252 253 255 245 243 68 38 12 123 93 20 
255 242 145 149 129 32 144 128 51 255 253 223 47 20 9 
105 66 49 100 57 41 96 63 56 255 248 245 255 253 253 
255 255 255 252 252 255 255 252 253 67 31 19 98 56 6 
161 124 17 244 214 92 190 165 72 186 161 95 102 72 34 
113 78 56 115 73 59 116 76 68 47 17 17 255 248 250 
255 249 253 255 253 255 255 254 255 255 251 248 124 79 60 
141 89 31 162 121 3 203 169 43 195 163 80 56 23 0 
137 101 65 105 64 42 56 13 0 39 0 0 30 4 3 
255 247 250 255 251 255 255 252 255 255 255 244 255 246 231 
118 66 44 161 101 47 219 176 72 195 158 51 184 145 78 
45 6 0 113 75 54 70 31 16 86 40 24 114 77 61 
148 125 119 255 252 250 255 252 254 255 254 255 255 255 236 
64 44 20 99 51 28 106 52 6 134 92 6 138 102 14 
163 123 71 54 15 0 85 48 32 40 0 0 202 157 138 
255 230 212 207 178 170 255 248 245 255 254 253 254 255 255 
255 252 228 57 40 14 66 34 11 255 248 211 137 103 40 
143 109 46 133 99 61 55 20 0 80 47 30 42 5 0 
230 184 161 135 87 67 135 92 85 255 247 244 255 255 250 
249 255 253 255 254 228 118 102 77 67 46 25 255 248 219 
106 83 39 112 88 44 84 60 34 53 26 9 87 54 39 
42 3 0 244 199 178 87 40 22 110 63 57 255 245 243 
254 249 243 249 255 251 255 252 232 51 36 17 37 26 8 
255 255 232 150 144 112 54 45 16 176 164 150 34 11 3 
68 30 19 45 2 0 235 200 181 113 80 63 85 44 38 
255 242 239 255 253 248 251 253 248 255 250 232 57 38 21 
114 101 84 255 254 232 154 150 123 96 94 71 255 253 243 
16 0 0 201 159 143 67 25 3 252 226 203 224 199 179 
72 34 23 243 210 205 255 252 250 254 254 252 255 245 228 
63 32 14 63 34 16 255 252 228 156 147 118 131 125 99 
246 228 218 39 11 0 255 218 187 138 103 65 255 243 210 
235 215 188 161 122 105 226 192 183 255 251 251 254 255 255 
255 248 228 128 93 73 130 93 67 133 102 74 154 143 113 
138 130 107 212 194 182 51 25 12 251 219 194 254 225 193 
243 227 193 233 216 186 185 153 132 193 163 153 255 251 253 
253 252 255 255 249 225 64 37 8 123 81 43 204 166 129 
157 145 119 152 147 128 217 204 188 40 23 13 39 21 19 
67 48 42 241 223 201 246 226 199 100 78 57 255 247 236 
255 251 253 255 252 255 255 254 234 116 96 69 71 32 0 
171 131 95 157 141 116 154 147 128 160 149 129 60 46 33 
45 29 30 30 11 13 149 127 116 20 0 0 205 188 172 
255 252 241 255 251 251 255 250 255 255 255 242 255 253 237 
59 25 0 97 60 33 167 143 119 160 146 120 156 146 119 
20 5 0 156 129 118 153 124 120 58 33 29 16 0 0 
255 248 238 255 248 241 255 252 251 255 252 255 253 252 247 
255 252 245 255 248 236 148 119 101 17 0 0 225 211 176 
199 190 149 20 6 0 126 100 77 255 244 228 135 107 96 
128 103 96 202 181 176 255 251 248 255 253 251 255 252 251 
255 254 253 255 254 251 255 249 248 255 249 236 9 3 0 
252 246 194 185 178 110 33 22 0 122 107 68 249 228 199 
212 183 151 255 232 206 201 176 171 255 250 253 255 254 252 
251 255 255 255 253 255 250 246 247 255 252 253 255 255 246 
5 8 0 87 90 43 221 215 153 25 16 0 12 5 0 
241 226 205 225 196 164 205 175 147 207 186 181 255 251 255 
254 255 255 248 255 252 255 254 255 255 254 255 255 254 251 
253 254 246 78 89 75 8 17 0 64 60 31 34 29 7 
39 40 42 26 21 25 99 72 61 159 131 119 255 251 251 
252 252 254 252 255 253 251 255 251 255 254 255 253 253 255 
255 255 251 254 255 250 76 87 79 82 92 83 49 47 32 
33 32 27 47 55 74 57 62 82 14 0 0 255 249 244 
255 252 251 251 255 254 254 255 251 253 255 249 254 254 255 
254 255 255 254 255 251 252 255 246 86 89 82 73 75 64 
31 33 12 30 35 28 14 29 52 98 109 139 4 1 8 
255 251 248 254 255 250 252 255 248 255 254 250 255 253 250 
255 254 255 254 255 255 252 255 251 254 255 248 76 73 64 
82 78 67 19 16 0 252 255 251 47 62 83 90 104 130 
0 0 11 255 255 253 254 255 251 255 255 250 255 254 253 
255 253 253 255 252 255 252 252 254 249 255 251 252 255 250 
82 73 64 85 72 64 60 51 46 255 253 254 22 32 41 
54 66 78 0 2 10 251 252 255 253 251 254 252 250 251 
255 253 254 255 254 255 255 250 252 255 254 255 251 255 253 
252 254 249 100 90 88 93 79 76 15 5 4 255 254 253 
28 32 35 61 66 70 16 19 26 252 253 255 255 254 255 
255 254 255 253 252 255 254 253 255 255 254 251 255 254 250 
249 251 246 255 255 253 255 252 255 93 87 91 3 0 0 
255 253 246 255 254 255 4 0 4 138 133 140 255 253 255 
250 250 250 254 255 255 254 255 255 254 254 255 255 255 250 
255 255 250 254 255 251 253 255 254 255 252 255 254 251 255 
253 254 248 255 255 248 255 251 252 115 106 111 105 98 105 
255 254 255 255 255 255 254 255 255 251 252 255 254 254 255 
251 250 246 254 255 251 251 255 253 251 255 253 255 255 255 
255 254 255 254 255 255 254 254 252 255 254 253 255 252 253 
254 255 255 254 255 255 250 250 252 253 253 255 254 255 255 
250 255 251 255 255 251 252 255 251 247 255 253 249 255 253 
254 255 251 253 254 249 254 255 255 253 254 255 255 255 253 
255 255 253 249 253 254 249 254 255 255 254 255 254 254 255 
252 254 249 252 255 250 