P3
# Created by IrfanView
16 32
255
249 174 197 249 173 199 253 174 203 251 171 200 255 175 202 
250 164 189 255 178 203 248 170 192 255 173 195 254 175 194 
251 173 195 252 174 198 254 174 203 254 170 204 253 171 207 
252 170 208 252 177 200 249 173 199 251 172 203 253 174 203 
246 166 191 255 179 204 244 166 192 255 178 204 255 177 201 
248 170 194 250 175 198 252 176 202 244 165 196 251 170 203 
254 175 207 253 174 206 246 173 193 246 172 197 252 176 206 
244 169 199 245 177 198 242 177 197 250 177 206 246 171 202 
245 170 201 251 178 208 247 174 201 242 169 196 255 182 215 
251 174 206 247 173 198 248 176 196 250 178 200 251 179 201 
248 176 198 253 189 203 255 205 202 245 194 193 245 178 196 
247 174 203 243 172 204 252 183 211 255 195 215 254 189 209 
227 158 186 247 177 203 246 174 194 247 176 194 249 175 202 
244 175 194 253 192 199 153 104 89 122 88 42 159 120 79 
252 192 191 247 178 197 253 188 210 218 157 173 121 69 73 
233 183 184 96 40 49 255 193 208 251 179 199 253 175 197 
241 171 199 247 183 199 184 133 129 134 94 58 249 220 140 
203 169 95 160 110 87 255 209 213 180 123 130 76 26 29 
145 101 92 81 38 29 145 97 97 255 197 209 247 173 196 
250 170 197 240 178 201 255 212 223 105 59 46 132 95 43 
187 152 48 255 220 118 114 73 29 134 90 77 106 62 51 
130 88 76 103 66 50 113 73 63 85 36 39 255 205 220 
251 175 203 255 171 205 245 187 201 144 92 96 160 119 101 
128 93 35 199 163 49 199 166 53 100 64 14 130 93 74 
108 72 50 82 46 24 50 15 0 47 9 0 80 34 36 
255 201 216 251 172 201 255 171 206 255 195 200 155 102 98 
148 107 89 198 165 112 206 175 67 207 176 70 64 27 0 
106 67 50 78 40 19 68 32 10 100 69 49 76 42 32 
154 108 111 246 185 200 255 174 204 255 169 204 254 194 193 
124 69 64 240 194 181 147 112 72 113 86 0 170 143 56 
36 0 0 109 70 55 79 41 20 43 7 0 255 241 222 
255 240 229 181 130 135 244 180 197 254 174 201 255 169 203 
255 199 195 119 64 59 255 211 209 168 125 106 166 141 84 
192 170 112 42 10 0 79 41 30 80 43 25 67 31 9 
198 160 139 92 46 33 199 138 146 252 183 202 244 168 194 
252 176 204 202 144 140 172 114 113 253 196 205 186 140 140 
138 117 88 63 47 13 37 5 0 88 50 41 87 48 31 
57 19 0 255 217 196 90 42 32 176 112 126 255 186 210 
246 173 200 250 177 204 218 157 156 163 102 107 246 189 208 
201 160 176 10 0 0 255 254 239 75 43 32 84 40 29 
43 0 0 150 107 88 154 117 99 90 46 43 186 123 144 
253 180 210 251 178 207 248 174 201 211 147 145 202 143 147 
242 189 205 252 218 232 67 57 56 212 203 194 109 79 69 
70 26 13 223 176 158 141 96 77 236 203 184 130 91 86 
168 110 125 255 189 215 245 171 196 251 177 200 191 131 123 
136 81 76 255 211 212 243 215 212 118 108 96 138 129 112 
141 113 99 150 111 94 173 126 106 194 149 126 255 246 222 
174 142 127 193 141 143 228 162 174 249 176 193 251 177 194 
180 123 116 154 104 95 122 83 68 78 52 35 73 62 44 
211 203 184 165 144 127 119 88 70 250 209 191 141 103 82 
255 239 216 233 202 184 157 106 103 221 155 165 253 180 197 
248 173 193 172 121 120 129 82 72 251 211 185 49 22 0 
166 155 137 150 142 129 84 70 57 18 0 0 197 170 159 
122 92 81 201 172 154 122 84 73 235 175 185 252 183 204 
250 178 202 249 175 200 248 197 202 90 45 40 158 121 95 
65 38 8 117 102 79 155 146 129 119 106 97 45 30 23 
65 45 38 59 34 27 168 140 128 121 80 76 218 155 172 
248 174 201 251 178 205 248 175 202 255 204 212 68 22 24 
58 24 14 61 36 14 121 101 68 169 152 124 75 60 53 
40 26 25 197 178 172 83 60 52 53 28 21 161 122 123 
255 195 216 249 170 199 247 173 196 245 173 193 243 181 196 
255 207 217 255 237 239 20 0 0 190 168 129 133 115 75 
81 67 54 38 23 18 252 234 220 197 174 158 151 123 112 
135 91 92 246 174 196 252 172 201 248 173 196 252 180 200 
246 168 192 250 182 203 255 211 222 61 33 22 143 125 79 
162 150 98 91 80 52 74 59 38 144 127 101 252 225 198 
228 187 165 247 190 183 217 140 158 255 174 202 255 177 203 
248 174 197 255 177 204 241 169 193 255 208 225 41 7 5 
29 13 0 217 209 163 46 36 9 61 48 31 73 58 39 
182 157 137 245 202 185 215 156 150 220 146 163 251 171 200 
252 174 200 250 172 198 247 173 198 248 180 203 233 178 199 
233 196 204 31 17 4 26 21 2 20 11 4 61 51 52 
47 37 46 52 32 41 119 78 82 170 115 121 255 194 216 
246 173 202 253 175 201 255 177 202 248 175 202 243 175 200 
244 185 207 206 164 176 69 54 51 85 82 73 90 80 79 
133 121 131 27 18 39 64 46 70 101 62 80 255 206 224 
239 177 202 250 177 206 252 172 199 253 169 195 250 171 202 
252 177 207 248 180 203 210 162 174 66 49 42 84 80 68 
59 48 42 251 239 243 36 24 44 91 71 98 87 49 74 
253 199 223 240 174 201 253 177 203 254 170 196 255 173 198 
253 172 204 251 172 201 255 187 211 147 95 107 67 50 43 
49 43 29 30 15 8 251 232 234 48 35 52 69 49 74 
141 102 129 242 187 216 245 176 204 254 176 202 255 172 198 
254 170 194 255 175 202 251 175 201 255 186 210 157 109 121 
104 89 84 142 135 125 41 20 17 209 184 188 48 34 47 
27 10 29 191 151 175 244 188 215 245 175 201 249 173 199 
243 169 194 253 179 202 255 175 200 245 170 193 248 178 202 
255 209 225 51 25 28 31 11 10 126 89 96 247 209 220 
125 103 116 15 0 8 169 126 146 242 184 208 246 173 200 
248 172 198 251 177 202 245 171 196 248 170 192 252 177 198 
248 172 198 243 175 200 255 218 237 143 96 112 254 191 210 
239 180 198 254 217 234 23 0 5 226 175 192 245 182 203 
245 171 196 252 172 199 255 178 208 251 168 198 253 178 201 
255 178 202 249 171 197 249 175 202 245 179 207 250 184 211 
250 174 200 247 175 199 242 189 209 192 143 162 255 196 216 
242 174 197 255 180 203 255 172 200 255 171 202 255 174 205 
250 171 202 250 171 200 255 176 205 253 174 203 251 172 204 
255 176 207 249 170 199 250 174 200 246 177 198 250 180 204 
245 174 204 250 175 205 251 173 197 253 174 196 255 172 198 
255 172 200 255 176 208 253 174 205 248 172 202 255 178 207 
255 169 204 255 170 203 254 175 206 250 174 200 251 171 196 
252 174 200 248 171 205 252 175 207 253 175 199 255 176 197 
253 174 196 253 173 198 