P3
# Created by IrfanView
16 32
255
255 255 250 255 255 250 255 255 250 255 255 250 255 255 250 
255 255 250 255 255 250 255 255 250 255 255 250 255 255 250 
255 255 250 255 255 250 255 255 250 255 255 250 254 254 255 
255 255 255 255 255 250 255 255 250 255 255 250 255 255 250 
255 255 250 255 255 250 255 255 250 255 255 250 255 255 250 
255 255 250 255 255 250 255 255 250 255 255 250 255 255 250 
254 254 255 254 254 255 255 255 250 255 255 250 255 255 250 
255 255 250 255 255 250 255 255 250 255 255 250 255 255 250 
255 255 250 255 255 250 255 255 250 255 255 250 255 255 250 
255 255 250 255 255 250 255 255 250 255 255 250 255 255 250 
255 255 250 255 255 250 255 255 250 255 255 250 254 254 255 
254 254 255 255 254 251 255 254 251 255 255 250 255 255 250 
255 255 250 255 255 250 255 255 250 255 255 250 255 255 250 
253 252 242 255 254 251 255 254 251 125 87 45 125 87 45 
201 166 73 125 87 45 253 252 242 255 254 251 125 87 45 
125 87 45 53 30 21 255 255 250 255 255 250 255 255 250 
255 254 251 255 254 251 255 254 251 53 30 21 125 87 45 
245 225 185 201 166 73 125 87 45 253 252 242 53 30 21 
125 87 45 53 30 21 125 87 45 253 252 242 248 255 253 
254 254 255 255 255 250 255 255 250 53 30 21 53 30 21 
201 166 73 201 166 73 201 166 73 201 166 73 125 87 45 
125 87 45 125 87 45 125 87 45 53 30 21 254 254 255 
255 254 251 254 254 255 255 255 250 255 255 250 125 87 45 
125 87 45 125 87 45 201 166 73 201 166 73 53 30 21 
125 87 45 53 30 21 53 30 21 53 30 21 0 0 0 
255 254 251 254 254 255 254 254 255 255 255 250 255 255 250 
125 87 45 125 87 45 201 166 73 201 166 73 201 166 73 
53 30 21 125 87 45 53 30 21 53 30 21 125 87 45 
151 134 114 254 254 255 254 254 255 254 254 255 255 255 250 
53 30 21 125 87 45 125 87 45 125 87 45 125 87 45 
125 87 45 53 30 21 53 30 21 53 30 21 211 182 161 
245 225 185 211 182 161 255 254 251 254 254 255 255 254 251 
255 255 250 53 30 21 53 30 21 201 166 73 125 87 45 
125 87 45 125 87 45 53 30 21 53 30 21 53 30 21 
211 182 161 125 87 45 125 87 45 253 252 242 255 254 251 
255 255 250 255 255 250 125 87 45 53 30 21 201 166 73 
125 87 45 125 87 45 125 87 45 53 30 21 53 30 21 
53 30 21 245 225 185 53 30 21 125 87 45 254 254 255 
255 254 251 255 255 250 255 255 250 53 30 21 53 30 21 
201 166 73 151 134 114 201 166 73 151 134 114 53 30 21 
53 30 21 53 30 21 245 225 185 125 87 45 53 30 21 
255 254 251 255 254 251 255 254 251 255 255 250 53 30 21 
53 30 21 201 166 73 151 134 114 201 166 73 78 81 85 
0 0 0 211 182 161 53 30 21 245 225 185 245 225 185 
53 30 21 245 225 185 254 254 255 255 254 251 255 255 250 
53 30 21 53 30 21 201 166 73 151 134 114 201 166 73 
78 81 85 53 30 21 245 225 185 125 87 45 254 247 228 
245 225 185 245 225 185 211 182 161 254 254 255 254 254 255 
255 255 250 125 87 45 125 87 45 125 87 45 151 134 114 
78 81 85 78 81 85 53 30 21 245 225 185 245 225 185 
245 225 185 245 225 185 245 225 185 211 182 161 254 254 255 
254 254 255 255 255 250 53 30 21 125 87 45 125 87 45 
151 134 114 151 134 114 151 134 114 53 30 21 53 30 21 
245 225 185 245 225 185 245 225 185 125 87 45 253 252 242 
255 254 251 255 254 251 255 255 250 125 87 45 53 30 21 
125 87 45 151 134 114 151 134 114 151 134 114 53 30 21 
53 30 21 53 30 21 151 134 114 0 0 0 211 182 161 
253 252 242 255 254 251 255 254 251 255 255 250 255 255 250 
53 30 21 125 87 45 151 134 114 151 134 114 151 134 114 
0 0 0 211 182 161 245 225 185 53 30 21 0 0 0 
253 252 242 253 252 242 255 254 251 255 254 251 255 255 250 
255 255 250 255 255 250 151 134 114 0 0 0 151 134 114 
151 134 114 0 0 0 245 225 185 245 225 185 151 134 114 
151 134 114 211 182 161 253 252 242 255 254 251 255 255 250 
255 255 250 255 255 250 255 255 250 253 252 242 0 0 0 
151 134 114 151 134 114 53 30 21 245 225 185 245 225 185 
245 225 185 245 225 185 245 225 185 254 254 255 255 254 251 
255 254 251 255 255 250 255 255 250 255 255 250 254 254 255 
0 0 0 125 87 45 211 182 161 0 0 0 211 182 161 
211 182 161 211 182 161 211 182 161 211 182 161 254 254 255 
255 254 251 255 254 251 254 254 255 254 254 255 255 254 251 
253 252 242 78 81 85 0 0 0 53 30 21 53 30 21 
78 81 85 0 0 0 125 87 45 151 134 114 255 255 250 
255 255 250 255 255 250 255 255 250 254 254 255 254 254 255 
255 255 250 255 255 250 78 81 85 78 81 85 53 30 21 
53 30 21 0 0 0 78 81 85 0 0 0 255 255 250 
255 255 250 255 255 250 255 255 250 255 255 250 254 254 255 
254 254 255 255 255 250 253 252 242 78 81 85 78 81 85 
53 30 21 53 30 21 0 0 0 78 81 85 0 0 0 
255 255 250 255 255 250 255 255 250 255 255 250 255 255 250 
254 254 255 255 255 250 255 255 250 255 255 250 78 81 85 
78 81 85 0 0 0 248 255 253 0 0 0 78 81 85 
0 0 0 255 255 250 255 255 250 255 255 250 255 255 250 
255 255 250 254 254 255 255 255 250 255 255 250 255 255 250 
78 81 85 78 81 85 53 30 21 248 255 253 0 0 0 
78 81 85 0 0 0 255 255 250 255 255 250 255 255 250 
255 255 250 255 255 255 254 254 255 255 255 250 255 255 250 
255 255 250 78 81 85 78 81 85 0 0 0 248 255 253 
0 0 0 78 81 85 0 0 0 255 255 250 255 255 250 
255 255 250 255 255 250 254 254 255 255 255 250 255 255 250 
255 255 250 255 255 250 255 254 251 78 81 85 0 0 0 
253 252 242 248 255 253 0 0 0 151 134 114 255 255 250 
255 255 250 255 255 250 255 254 251 254 254 255 255 255 250 
255 255 250 255 255 250 255 255 250 254 254 255 254 254 255 
253 252 242 253 252 242 254 254 255 151 134 114 78 81 85 
255 255 250 255 255 250 255 255 250 254 254 255 255 255 250 
253 252 242 255 255 250 255 255 250 255 255 250 255 254 251 
255 255 250 254 254 255 254 254 255 248 255 253 248 255 253 
254 254 255 255 255 250 255 255 250 255 255 250 255 255 250 
255 255 250 255 255 250 255 255 250 255 255 250 255 255 250 
255 254 251 255 255 250 254 254 255 248 255 253 255 254 251 
255 254 251 248 255 253 255 255 250 255 255 250 255 255 250 
255 255 250 255 255 250 