P3
# Created by IrfanView
32 64
255
254 171 197 255 170 199 255 171 206 255 171 204 245 172 192 
248 176 196 254 175 204 254 170 203 255 172 205 253 173 202 
249 175 200 252 180 202 248 173 196 254 174 199 255 173 201 
255 171 202 255 171 205 255 172 205 252 171 203 254 173 205 
254 175 207 247 168 199 255 178 204 249 171 195 253 174 203 
251 172 201 254 176 198 251 173 195 254 175 204 252 173 204 
253 174 205 253 174 205 255 173 201 253 170 200 255 169 203 
255 173 203 249 176 196 248 177 195 253 173 200 252 169 199 
255 170 203 255 179 208 246 172 197 238 166 188 255 182 206 
255 173 199 248 165 193 255 172 202 253 170 200 252 172 201 
255 177 204 246 166 195 255 177 209 255 177 209 247 167 192 
255 180 205 250 170 199 252 173 202 248 170 194 254 176 200 
254 175 204 249 170 201 249 170 201 254 175 206 255 174 206 
250 170 199 254 169 198 255 174 200 250 177 196 249 176 193 
254 172 194 255 171 197 255 172 205 247 168 199 253 181 205 
253 179 202 251 168 194 252 167 196 255 177 206 255 172 200 
252 174 196 253 175 197 254 175 196 251 169 192 255 173 202 
255 171 200 254 168 195 255 173 199 255 172 200 250 170 199 
255 182 206 247 172 195 245 169 197 249 173 203 254 175 204 
253 174 203 250 173 205 249 173 201 253 173 198 254 175 197 
250 175 196 250 172 194 255 171 194 255 174 200 252 171 203 
248 169 200 246 172 195 253 178 199 252 167 196 255 172 201 
255 174 204 251 171 198 253 176 196 253 176 194 252 173 192 
255 175 197 255 171 197 253 167 194 255 174 201 253 167 194 
255 173 201 247 167 194 255 177 203 249 173 199 253 177 205 
254 178 206 251 172 201 249 170 199 245 175 203 248 176 200 
249 176 196 249 174 195 252 172 199 254 171 201 255 170 199 
255 170 199 251 171 200 252 176 204 248 173 194 252 174 196 
255 172 201 255 173 204 249 168 200 252 173 202 251 173 195 
252 173 194 254 175 196 254 175 197 255 174 197 255 174 200 
255 170 199 255 172 200 254 171 199 255 181 208 252 172 201 
252 173 202 252 173 202 252 174 200 251 173 199 254 176 202 
246 176 204 247 177 203 247 175 197 248 173 196 255 173 203 
255 172 203 251 171 200 248 170 196 249 175 198 244 172 194 
254 180 203 253 177 203 251 171 200 251 168 198 255 178 207 
253 175 201 252 172 199 251 171 196 251 173 199 252 177 200 
246 173 193 248 174 197 249 173 199 246 170 196 253 175 199 
244 166 190 254 174 203 250 170 199 253 173 200 253 173 200 
252 174 200 251 173 199 249 174 205 250 175 205 248 174 199 
249 174 197 255 174 202 253 173 200 245 175 199 245 182 201 
247 185 198 244 182 197 245 175 203 243 170 200 252 175 207 
252 173 202 251 173 195 250 171 193 255 171 204 254 170 204 
248 171 203 249 179 207 239 176 195 239 180 198 242 180 203 
241 178 199 255 191 210 255 181 202 255 179 208 255 172 202 
255 176 202 252 169 195 252 172 199 252 174 200 252 173 205 
253 174 206 253 174 203 253 175 201 254 174 199 247 174 194 
240 184 197 247 201 204 249 200 195 253 199 197 248 187 202 
247 182 206 246 176 204 250 176 201 248 171 191 255 174 196 
254 170 203 252 170 208 253 182 214 237 175 200 241 189 202 
252 205 215 230 179 194 255 202 218 135 73 86 255 184 200 
247 169 195 255 176 204 254 170 196 253 170 196 255 177 204 
253 175 201 255 171 204 255 171 204 254 169 202 255 175 205 
247 171 197 247 186 201 254 216 213 102 74 53 134 100 63 
132 91 59 151 103 91 255 204 209 253 190 207 241 172 193 
255 178 196 253 174 195 249 173 203 251 180 212 255 192 219 
254 201 219 216 173 180 107 68 69 254 213 217 247 200 206 
91 36 41 173 110 119 255 189 210 250 170 195 255 176 199 
255 174 200 252 172 201 255 176 205 255 172 198 255 173 202 
255 170 202 254 171 201 250 180 204 223 172 179 140 113 94 
110 91 48 156 127 61 165 130 64 130 94 46 166 124 99 
202 147 150 253 191 206 250 179 197 244 173 191 250 185 207 
221 162 182 151 98 114 156 111 118 146 108 105 85 51 42 
164 127 121 142 98 95 123 72 69 146 85 90 255 193 209 
250 175 196 249 169 194 255 181 206 248 167 199 251 170 202 
251 174 192 250 171 192 255 175 204 243 163 192 255 204 225 
154 110 111 64 40 4 183 164 96 244 211 116 242 207 103 
182 156 63 132 101 36 137 91 75 239 186 194 240 182 196 
249 191 205 255 207 216 138 93 96 73 32 30 75 36 29 
93 56 40 146 109 91 73 34 19 86 42 31 167 117 108 
145 87 86 255 196 207 250 178 198 248 173 196 251 173 199 
255 179 212 254 173 206 251 180 196 244 171 190 254 174 199 
252 178 201 248 190 204 63 23 13 133 111 61 173 153 67 
229 194 78 228 191 61 230 204 81 248 223 131 84 46 10 
226 181 178 247 200 206 214 169 174 229 189 187 54 17 8 
130 94 80 121 84 66 126 88 67 159 118 96 121 78 59 
138 92 77 160 110 101 128 72 71 255 199 210 241 174 192 
255 185 210 240 164 192 252 171 204 254 173 206 246 177 198 
248 179 200 241 174 192 255 206 217 97 46 43 165 125 99 
166 142 80 127 103 7 200 159 33 178 135 0 216 187 47 
255 234 124 84 52 5 233 197 183 255 224 218 58 21 15 
72 38 26 116 83 66 121 86 66 125 87 64 122 81 59 
143 101 79 128 83 64 137 89 75 135 84 80 125 70 73 
255 200 210 241 177 194 244 172 196 255 185 215 255 176 208 
255 171 204 243 170 199 245 177 200 248 190 205 234 182 184 
70 22 8 189 151 114 86 63 0 156 132 34 208 168 34 
204 160 9 190 159 9 245 219 100 122 93 35 57 27 3 
66 33 18 154 120 108 125 89 73 130 93 74 110 72 51 
109 68 46 79 37 15 92 47 28 86 40 24 92 44 34 
75 23 25 112 56 65 255 199 214 251 183 204 247 174 201 
243 167 197 251 170 202 254 171 201 255 177 211 238 165 192 
255 217 230 88 47 45 203 158 137 127 90 48 49 29 0 
160 141 46 200 166 30 194 155 0 196 161 7 211 181 57 
107 80 13 101 72 40 120 83 64 135 96 81 114 70 57 
125 79 64 93 50 33 90 47 28 69 26 10 80 36 23 
68 24 13 89 41 37 87 36 43 80 23 38 255 205 222 
239 171 194 250 175 205 252 173 204 255 173 203 255 176 205 
255 169 204 254 180 207 194 143 152 94 51 45 207 162 143 
97 59 22 172 150 93 140 120 31 193 164 28 199 163 7 
194 157 4 199 165 41 116 87 19 88 59 25 128 92 68 
121 79 63 108 62 49 101 55 42 91 45 29 86 43 26 
57 13 0 61 19 7 57 13 2 59 14 9 62 11 20 
184 127 144 254 191 210 244 174 198 251 175 203 251 171 200 
255 176 204 252 168 194 251 171 206 255 188 211 146 86 86 
157 107 96 132 85 75 164 123 101 249 218 171 133 105 21 
201 173 40 200 167 12 197 160 9 205 169 47 112 81 16 
52 21 0 101 65 41 114 76 57 96 57 40 83 41 25 
85 42 25 79 36 19 69 26 10 81 37 24 76 30 17 
73 26 20 44 0 0 255 201 214 243 179 196 249 175 198 
251 175 201 255 175 202 254 171 199 255 172 200 251 174 206 
255 188 206 161 96 90 202 146 131 97 46 45 255 216 207 
233 195 158 130 100 27 197 170 53 193 166 25 197 165 20 
204 169 51 99 67 8 36 2 0 95 54 32 106 65 47 
83 44 27 80 41 24 81 38 22 63 20 4 139 98 80 
165 122 105 149 103 87 132 84 74 77 29 29 247 191 200 
251 182 200 249 171 195 251 173 197 255 177 204 253 173 200 
253 173 200 250 176 201 255 187 198 182 118 106 170 111 97 
222 165 171 244 194 197 235 195 170 101 70 15 150 129 38 
155 136 18 168 146 11 173 147 36 75 45 0 41 4 0 
112 65 49 107 58 43 83 37 22 85 42 26 78 32 19 
52 9 0 235 194 174 255 241 219 252 210 186 240 194 178 
127 76 73 249 188 196 251 176 196 253 170 196 255 173 199 
253 170 196 255 178 204 250 172 198 245 176 195 251 184 191 
122 59 44 143 84 70 174 112 125 248 192 205 255 212 199 
47 14 0 97 77 4 92 78 0 135 117 5 144 121 27 
44 15 0 64 27 11 116 68 54 89 37 23 85 37 23 
87 41 28 81 34 24 81 35 22 255 218 196 255 226 197 
255 222 191 254 209 186 164 109 104 247 181 191 254 177 197 
253 169 195 255 172 196 255 173 196 249 171 195 251 175 201 
254 188 200 240 178 181 158 99 81 161 101 90 246 183 200 
244 182 203 232 181 178 144 105 76 202 180 120 44 28 0 
172 154 72 237 214 147 43 16 0 61 28 13 85 43 27 
87 40 24 91 43 29 89 41 29 67 18 11 107 61 48 
248 206 182 127 88 55 126 88 52 160 114 88 151 94 87 
255 187 197 248 169 191 255 174 200 255 173 198 251 167 191 
255 177 201 248 172 198 244 180 194 249 189 191 142 85 68 
141 83 71 255 199 215 246 181 203 237 180 186 95 53 31 
247 227 168 138 125 55 108 89 31 145 122 80 37 10 0 
71 39 26 82 43 28 85 42 26 86 38 26 87 39 29 
72 23 16 99 51 37 242 198 171 140 97 63 108 70 34 
106 60 36 120 61 57 253 183 194 255 177 199 255 174 200 
253 169 193 255 175 199 252 172 197 252 174 200 252 189 210 
186 126 136 136 80 67 185 127 115 255 189 198 247 179 194 
253 192 199 113 68 47 185 165 102 159 149 78 58 41 0 
92 70 47 33 6 0 64 34 26 82 44 31 85 43 29 
87 43 34 91 44 36 69 21 11 91 44 26 254 207 179 
195 150 119 118 77 49 108 63 44 105 45 44 255 188 202 
250 176 199 255 177 203 252 170 193 255 172 196 255 174 202 
253 173 202 255 197 212 125 65 73 151 92 86 246 186 178 
249 180 185 248 178 189 255 196 205 153 106 96 75 59 10 
96 91 35 81 67 38 137 118 103 40 16 6 66 36 26 
86 46 34 84 40 29 86 41 35 87 42 36 64 18 3 
123 75 53 254 205 175 184 139 110 109 68 48 114 70 59 
116 55 60 255 190 205 249 177 199 249 175 200 249 169 194 
255 174 197 253 170 198 255 174 204 250 192 188 171 112 108 
143 82 81 237 171 173 255 183 192 249 175 188 255 198 214 
153 108 113 25 9 0 21 19 0 159 153 131 222 211 189 
79 59 35 61 28 9 88 40 26 85 32 24 69 22 16 
81 37 28 57 12 0 182 136 110 229 182 152 130 86 61 
78 40 29 83 39 40 131 71 79 250 183 200 249 179 203 
241 168 195 253 175 201 253 173 198 252 172 199 255 175 202 
253 196 185 171 112 104 108 47 46 246 179 186 255 185 198 
248 175 192 255 192 213 137 93 110 72 56 59 67 64 57 
215 212 193 237 230 204 153 136 110 36 5 0 101 51 40 
86 31 24 53 4 0 69 22 12 62 16 0 247 202 173 
141 100 68 151 114 88 217 184 177 31 0 0 96 38 50 
255 191 208 254 184 208 244 170 197 255 180 208 252 174 200 
252 174 200 253 175 201 255 197 193 159 100 96 167 106 103 
241 175 179 245 172 191 243 173 199 240 180 206 250 207 226 
53 34 38 120 113 103 232 226 204 248 238 213 174 157 137 
41 12 0 84 39 33 77 24 20 249 199 192 93 45 31 
54 7 0 252 209 177 205 171 136 201 171 147 239 211 207 
36 1 7 114 61 69 255 196 210 245 171 194 254 178 206 
245 169 197 246 170 198 250 174 200 250 174 200 255 199 198 
152 94 90 153 93 85 252 188 188 251 184 201 242 178 204 
235 179 204 255 216 234 48 28 29 163 153 143 161 150 130 
123 111 89 178 163 144 53 30 16 56 17 10 154 107 101 
253 203 192 154 106 86 101 54 26 236 193 161 247 217 183 
216 192 166 243 220 214 28 0 0 172 123 126 161 98 106 
255 193 213 251 172 201 246 172 199 253 179 206 254 180 205 
247 173 198 252 196 197 131 73 69 162 106 89 167 111 98 
255 200 212 232 177 198 234 185 206 255 223 234 71 47 43 
180 164 151 144 124 113 113 95 81 174 159 138 83 65 45 
40 10 0 229 189 177 175 128 108 188 138 113 152 102 75 
236 192 163 255 232 198 224 205 175 241 222 208 71 44 37 
218 174 165 150 90 90 229 156 175 253 175 201 245 171 196 
247 173 198 248 172 198 251 175 201 255 202 208 101 46 41 
176 122 96 120 68 44 232 181 180 246 199 209 235 193 203 
176 144 149 96 76 67 168 152 137 170 150 139 175 157 143 
171 159 135 108 94 68 32 4 0 255 223 207 174 130 103 
185 136 104 160 109 82 231 185 159 255 237 203 239 220 188 
239 221 201 157 131 116 238 200 181 173 119 109 195 124 138 
255 183 209 252 178 203 247 173 198 255 179 205 251 171 198 
255 201 214 92 37 34 162 109 75 156 107 67 156 109 89 
220 180 172 220 186 184 40 16 12 82 68 55 128 120 101 
194 181 164 222 210 188 178 171 142 133 119 92 35 3 0 
250 209 191 248 205 170 172 124 86 150 96 72 221 173 150 
249 218 187 255 242 210 240 219 192 240 214 189 232 197 167 
172 123 106 191 124 133 251 177 200 250 178 200 246 172 195 
253 170 198 255 171 200 252 198 212 106 52 50 106 53 19 
200 152 106 109 63 27 82 42 17 70 38 25 62 40 29 
80 68 52 94 87 68 172 161 139 153 143 118 152 147 118 
138 126 100 42 14 0 185 149 133 255 224 194 221 182 151 
154 106 86 146 99 81 233 198 170 255 236 204 184 157 128 
189 159 131 181 144 117 104 55 41 203 137 147 255 185 208 
246 174 196 249 175 198 255 173 201 255 170 199 254 202 214 
101 50 49 77 26 0 226 177 134 222 176 126 249 206 163 
106 68 47 64 36 22 195 182 165 115 107 86 176 164 142 
125 115 90 62 58 33 63 57 35 23 7 0 71 51 42 
206 186 175 251 227 215 146 112 103 137 99 86 200 162 139 
218 181 154 179 143 117 118 81 62 179 137 125 253 201 203 
252 185 203 249 175 202 252 174 200 253 175 201 250 171 200 
252 173 202 255 204 217 88 36 38 86 35 16 186 138 102 
163 117 65 230 188 138 105 65 39 60 29 11 153 136 116 
125 117 96 180 167 148 117 106 86 162 157 137 70 64 48 
23 13 4 41 27 26 89 75 75 120 101 103 96 70 69 
141 108 101 185 148 132 192 154 133 185 144 124 111 67 54 
184 136 136 249 193 206 251 181 205 251 175 203 252 172 201 
255 175 204 251 175 203 252 178 205 250 189 205 187 130 137 
68 18 7 175 131 104 126 83 41 198 156 114 92 55 28 
65 34 13 119 101 81 127 116 98 176 163 147 122 110 94 
166 159 140 75 69 53 47 36 34 50 35 42 68 52 62 
68 48 59 66 40 49 111 81 83 163 130 125 185 148 139 
173 135 122 120 75 69 159 104 110 255 200 217 243 169 194 
252 173 202 250 170 199 252 172 201 249 173 203 251 175 205 
249 181 204 255 198 210 49 0 0 160 119 101 105 66 37 
172 136 104 92 58 30 73 45 21 104 86 64 127 114 97 
174 160 147 128 116 102 128 121 103 60 53 43 54 41 48 
64 48 61 89 69 81 101 77 90 71 44 53 79 50 55 
131 102 104 134 104 102 144 109 103 98 54 55 209 151 166 
248 178 202 253 175 201 252 172 199 255 178 207 251 171 200 
255 175 207 254 173 205 250 177 204 254 191 208 73 24 27 
110 71 64 90 52 41 120 87 70 69 41 17 71 50 23 
104 86 64 133 118 99 170 159 139 121 112 95 95 89 75 
62 54 52 42 31 48 73 55 77 116 90 101 188 157 162 
102 71 76 66 40 43 100 78 81 52 30 32 106 78 77 
124 83 91 255 202 228 249 175 208 255 175 207 251 168 198 
252 172 199 249 166 194 254 169 198 255 172 201 247 171 199 
255 196 217 171 120 129 64 24 25 67 28 29 68 35 30 
50 27 9 62 45 19 122 105 75 120 105 74 181 170 138 
127 117 90 104 97 78 45 37 34 37 25 45 71 54 73 
138 112 113 255 226 218 153 122 117 80 51 47 130 109 108 
33 12 11 126 98 97 255 221 229 240 177 206 248 172 210 
250 166 200 255 177 208 255 175 202 255 179 206 254 170 196 
255 172 197 255 175 202 248 174 199 245 186 204 243 195 207 
248 205 215 255 223 227 81 60 55 18 2 0 163 146 100 
129 112 58 182 169 117 133 122 77 88 79 46 47 38 23 
45 33 45 69 53 66 185 162 148 255 243 219 205 173 152 
156 125 107 192 165 154 129 102 93 81 51 41 232 187 190 
253 184 213 254 172 212 255 173 207 255 171 200 248 169 198 
250 174 200 252 173 195 255 177 198 255 173 202 249 171 197 
249 180 208 250 191 213 235 182 198 254 214 223 81 59 61 
14 0 0 113 94 38 239 221 149 150 131 63 85 69 9 
143 131 81 60 49 21 77 62 65 48 32 35 183 158 138 
255 227 196 255 227 198 182 145 119 127 95 74 178 147 127 
209 178 157 87 44 37 187 122 144 255 181 216 255 169 201 
255 171 200 254 175 204 250 174 202 253 175 199 252 173 195 
255 169 198 255 174 204 254 173 206 249 176 205 241 176 196 
254 207 217 73 49 49 64 48 25 94 74 13 232 210 127 
198 176 90 77 59 0 127 112 45 77 64 19 96 80 65 
63 44 37 110 82 61 246 211 181 255 219 188 230 183 153 
182 143 114 219 184 154 255 231 195 155 117 94 182 125 134 
255 185 209 253 173 198 253 170 198 255 177 208 252 173 204 
255 173 203 255 172 200 255 173 201 255 174 204 254 168 203 
255 174 206 247 175 197 255 210 219 69 43 42 91 76 53 
79 60 4 150 128 52 240 219 130 131 111 25 90 75 6 
89 77 29 82 67 46 87 69 59 72 46 29 196 161 139 
229 182 156 255 212 185 241 194 166 248 207 175 255 229 191 
214 174 148 176 120 123 252 183 202 255 179 201 253 173 200 
249 170 201 254 175 207 251 171 200 255 177 204 250 174 200 
251 172 201 254 168 203 255 171 204 247 173 196 255 202 212 
67 42 35 72 60 36 63 48 9 67 50 0 223 205 129 
185 169 92 67 57 0 69 60 21 46 34 18 99 86 80 
84 67 57 110 84 71 182 140 124 255 207 190 253 201 180 
248 198 175 250 205 176 220 172 152 182 119 127 255 186 208 
251 171 196 255 176 203 249 173 203 248 173 203 252 176 202 
250 176 199 245 173 195 250 176 201 253 172 204 255 174 206 
250 176 201 255 203 216 94 64 62 41 25 10 36 24 0 
46 37 0 127 115 57 177 167 108 72 65 19 42 35 7 
14 5 0 89 79 80 101 91 89 56 37 33 106 71 65 
200 153 147 223 171 160 209 156 142 208 157 140 170 116 106 
184 118 132 255 188 213 251 172 201 249 169 198 255 176 205 
251 175 203 248 174 197 248 175 195 248 179 197 247 175 197 
254 178 208 250 171 202 245 171 196 239 178 196 255 215 224 
143 122 119 33 26 8 25 24 0 28 22 0 33 27 0 
22 16 0 16 10 0 48 38 46 50 42 55 47 40 48 
41 29 33 35 8 13 130 91 96 157 111 113 130 80 79 
127 76 73 108 51 57 255 204 224 250 177 207 246 170 200 
255 174 206 252 172 199 255 175 200 252 173 195 255 176 197 
247 176 192 247 175 195 247 171 199 250 173 205 250 171 202 
247 178 206 253 201 223 153 122 130 65 59 47 54 57 36 
87 82 63 29 22 6 78 72 58 20 12 9 71 60 74 
80 71 90 54 52 66 54 48 60 49 31 45 78 50 64 
44 4 13 204 157 165 240 187 195 247 187 199 251 183 208 
247 174 204 251 174 206 251 170 202 255 173 201 255 174 200 
251 168 194 255 177 200 254 177 195 253 176 196 252 174 200 
255 174 207 255 173 212 252 172 211 251 184 217 157 115 129 
65 55 43 80 84 61 128 122 108 34 25 16 90 80 71 
85 71 70 126 110 121 37 26 43 36 39 56 41 44 63 
63 55 76 52 33 52 31 0 15 195 151 164 249 195 209 
242 178 195 247 175 199 250 174 202 249 168 200 255 175 205 
255 175 203 255 171 200 255 172 202 255 172 202 253 171 194 
255 175 200 252 172 199 251 171 200 255 171 208 251 169 207 
255 189 221 161 113 129 75 58 50 84 83 63 132 126 112 
40 32 21 88 75 67 87 72 69 215 194 203 119 105 122 
19 21 42 36 42 66 79 77 101 59 45 68 15 0 9 
193 152 170 244 187 206 248 179 200 249 174 197 253 173 200 
255 175 204 255 175 204 252 169 197 255 177 205 253 169 202 
254 170 204 255 177 210 247 166 198 254 174 199 255 177 199 
251 172 194 254 180 203 249 186 207 169 121 133 77 51 50 
83 73 61 130 124 108 36 33 14 86 79 63 72 54 50 
254 227 236 188 165 185 11 7 32 70 74 101 86 82 109 
65 53 77 17 0 16 185 147 168 245 187 209 250 178 202 
254 171 197 255 172 198 252 174 198 251 175 201 252 174 200 
253 173 202 253 172 204 254 173 206 249 169 204 255 178 210 
251 171 196 251 172 193 250 176 193 241 173 188 247 190 205 
145 102 112 71 45 46 79 66 57 127 122 103 35 33 12 
84 77 59 63 46 39 247 217 227 179 154 175 33 27 55 
86 87 117 86 82 109 73 63 88 15 0 18 177 142 164 
249 189 215 248 172 198 255 171 197 255 172 196 250 175 196 
250 176 199 250 174 200 252 173 202 253 172 204 254 173 205 
255 175 208 251 171 200 253 170 196 255 178 200 253 180 199 
253 190 207 247 199 213 32 0 6 74 54 53 64 56 43 
93 88 68 39 34 12 70 58 44 62 43 39 250 222 234 
178 154 176 21 12 43 97 96 128 86 83 112 62 54 78 
18 0 23 181 143 168 255 194 221 244 168 196 255 171 197 
255 172 196 250 175 196 250 177 197 250 175 196 252 174 198 
253 173 200 255 173 201 253 172 204 255 176 205 255 175 201 
251 172 194 249 175 198 236 175 193 242 198 213 63 33 41 
114 100 97 45 39 25 69 67 46 36 31 9 28 14 1 
57 37 36 255 230 244 175 151 175 27 16 46 90 87 118 
83 83 109 9 4 27 97 77 102 255 215 241 235 171 198 
255 179 208 254 171 197 255 173 196 252 174 196 249 176 195 
250 175 196 252 174 196 253 173 198 255 172 198 253 173 202 
252 172 199 255 175 201 248 168 193 250 176 201 252 190 213 
240 197 214 33 6 15 96 85 81 121 118 103 123 122 101 
95 90 70 79 65 54 49 27 29 154 123 139 190 162 187 
34 19 48 101 97 122 74 76 97 10 7 26 92 70 91 
246 204 228 247 181 209 250 171 200 254 171 199 255 172 198 
252 174 196 250 175 196 250 175 196 252 174 196 255 173 196 
255 172 196 255 175 202 255 177 204 255 174 200 252 172 197 
248 174 201 241 177 201 246 197 218 116 84 95 45 29 29 
142 136 124 138 135 116 103 98 79 95 78 70 61 34 39 
223 184 205 195 156 183 30 7 33 92 83 104 51 53 68 
6 4 18 94 71 91 255 212 235 243 174 203 255 177 206 
254 171 201 255 172 200 252 174 198 250 175 198 250 175 198 
252 174 198 255 172 198 255 172 198 251 173 199 251 173 199 
251 171 196 253 173 198 254 175 204 242 172 198 247 189 213 
216 173 190 33 8 12 88 75 69 89 83 69 70 62 49 
63 44 40 149 113 123 255 205 231 214 164 193 145 113 134 
48 34 47 22 22 30 1 0 7 82 55 70 255 208 230 
246 173 202 254 171 201 254 171 201 253 173 202 252 174 200 
250 174 200 249 175 202 250 174 202 255 172 202 255 171 202 
253 177 205 245 169 195 255 178 203 252 172 197 252 172 199 
254 178 206 243 175 200 255 202 222 116 78 89 106 81 84 
37 22 17 32 15 8 62 33 37 244 200 213 243 180 207 
246 186 214 255 220 238 63 43 52 5 0 4 6 0 2 
60 28 41 255 210 230 242 168 195 255 171 202 254 171 201 
253 173 202 252 173 202 250 174 202 250 174 204 250 174 204 
255 171 204 255 171 204 249 174 204 250 174 202 253 173 200 
255 172 198 255 172 198 254 171 197 249 173 199 242 177 199 
253 202 219 255 223 234 58 27 32 60 28 33 169 127 137 
254 199 218 246 176 204 244 175 203 250 201 220 163 133 143 
10 0 0 11 0 0 73 35 48 255 210 232 249 173 201 
255 173 204 255 171 204 253 172 204 252 173 204 250 174 204 
251 175 205 253 174 205 255 172 205 255 172 205 249 174 204 
251 175 203 254 174 201 255 172 198 255 171 196 255 171 196 
253 173 198 249 175 200 239 177 198 232 177 196 250 202 216 
251 203 217 247 190 207 244 179 201 248 172 200 249 176 203 
234 179 198 255 226 240 27 1 10 23 0 5 255 217 232 
238 176 197 253 174 203 255 172 203 255 172 202 253 173 202 
252 173 202 253 174 203 253 174 203 253 174 203 255 173 203 
255 172 203 250 175 206 251 175 205 255 173 203 255 172 199 
255 172 197 255 172 197 255 173 199 250 174 200 251 179 203 
248 180 205 246 178 203 247 179 204 246 173 200 249 175 200 
247 171 197 248 176 200 239 177 200 244 193 212 204 163 179 
95 54 70 255 204 224 244 179 203 254 175 204 255 173 204 
255 172 202 253 173 200 252 174 200 253 175 201 253 175 201 
254 174 201 255 173 199 255 173 199 251 175 205 253 174 205 
255 172 203 255 172 201 255 172 199 255 173 199 255 173 199 
253 175 201 250 174 202 249 173 201 253 172 204 255 174 206 
253 173 202 255 176 205 252 176 202 245 173 197 249 181 206 
243 181 206 236 181 204 214 159 182 244 182 205 243 173 199 
251 171 200 255 172 200 253 173 200 253 173 200 253 175 199 
253 175 199 254 174 199 255 173 199 255 174 197 255 174 197 
253 174 203 254 174 203 255 172 203 255 172 203 255 172 201 
255 173 201 254 174 201 253 174 203 255 177 206 250 170 199 
255 174 205 255 171 202 255 170 201 250 170 199 247 171 197 
248 174 199 246 172 199 246 176 204 253 184 212 253 184 212 
244 174 200 250 176 203 255 175 202 255 172 200 254 174 201 
254 174 199 253 175 199 253 175 199 255 173 199 255 173 199 
255 173 199 254 174 199 255 173 199 255 173 201 255 173 203 
255 173 203 255 172 205 254 173 205 254 174 203 254 174 203 
253 173 202 255 178 205 250 167 197 255 178 209 253 170 200 
254 174 203 255 180 206 248 172 198 249 170 199 254 175 204 
251 172 201 255 177 206 241 165 191 253 177 203 255 177 204 
253 173 198 254 174 199 253 175 199 253 175 199 253 175 201 
255 173 201 255 172 201 254 174 201 254 174 201 255 173 197 
255 173 199 254 174 203 254 173 205 254 173 206 254 173 206 
254 173 205 254 174 203 255 175 202 251 173 197 248 172 198 
250 174 200 251 175 201 248 170 196 249 169 198 255 175 202 
255 173 199 254 170 196 255 170 198 255 171 198 255 178 204 
248 170 194 255 177 201 253 173 198 254 174 199 253 175 199 
253 175 201 253 174 203 255 172 203 255 172 203 254 173 205 
253 174 205 255 173 196 255 174 197 254 174 203 253 174 205 
253 173 208 253 174 206 255 172 206 254 174 203 254 174 201 
250 175 198 250 176 199 249 177 199 249 175 200 254 178 204 
255 176 205 253 170 198 255 174 200 254 168 193 255 169 196 
255 170 196 255 172 196 255 176 198 253 175 197 253 175 197 
254 174 199 253 175 199 253 174 203 253 174 203 255 172 205 
255 172 205 254 173 206 253 174 206 